<svg id="instagram-logo" xmlns="http://www.w3.org/2000/svg" width="30" height="30" viewBox="0 0 30 30">
  <g id="Grupo_1725" data-name="Grupo 1725">
    <g id="Grupo_1724" data-name="Grupo 1724">
      <path id="Trazado_791" data-name="Trazado 791" d="M22.859,25.862a3,3,0,1,0-3-3A3.008,3.008,0,0,0,22.859,25.862Z" transform="translate(-7.859 -7.859)" fill="#fff"/>
      <path id="Trazado_792" data-name="Trazado 792" d="M33.783,16.852V13.96h-.376l-2.516.008.01,2.892Z" transform="translate(-12.226 -5.525)" fill="#fff"/>
      <path id="Trazado_793" data-name="Trazado 793" d="M15,0A15,15,0,1,0,30,15,15.017,15.017,0,0,0,15,0Zm8.531,13.25v6.985a3.3,3.3,0,0,1-3.3,3.3H9.766a3.3,3.3,0,0,1-3.3-3.3V9.767a3.3,3.3,0,0,1,3.3-3.3H20.233a3.3,3.3,0,0,1,3.3,3.3Z" fill="#fff"/>
      <path id="Trazado_794" data-name="Trazado 794" d="M24.992,23.679A4.666,4.666,0,1,1,16,21.929H13.457v6.985a1.635,1.635,0,0,0,1.635,1.634H25.559a1.635,1.635,0,0,0,1.635-1.634V21.929H24.646A4.6,4.6,0,0,1,24.992,23.679Z" transform="translate(-5.326 -8.679)" fill="#fff"/>
    </g>
  </g>
</svg>
