<svg xmlns="http://www.w3.org/2000/svg" width="483.199" height="315.79" viewBox="0 0 483.199 315.79">
  <g id="Componente_37_1" data-name="Componente 37 – 1" transform="translate(0 0.603)">
    <ellipse id="Elipse_1530" data-name="Elipse 1530" cx="54.181" cy="6.169" rx="54.181" ry="6.169" transform="translate(284.976 302.849)" fill="#e1edff" opacity="0.4" style="mix-blend-mode: multiply;isolation: isolate"/>
    <ellipse id="Elipse_1531" data-name="Elipse 1531" cx="54.181" cy="6.169" rx="54.181" ry="6.169" transform="translate(116.376 302.849)" fill="#e1edff" opacity="0.4" style="mix-blend-mode: multiply;isolation: isolate"/>
    <path id="Trazado_11119" data-name="Trazado 11119" d="M-727.814,802.473c101.217,6.113,189.349-27.936,198.612-91.825,3.226-22.246-16.447-43.661-50.32-59.9h0c-.7-.333-1.392-.666-2.1-1-7.8-3.758-35.324-17.585-44.767-30.031-11.05-14.562-14.355-36.547-45.9-33.788s-22.191,32.8-64.248,35.852h0q-3.381.067-6.729.184c-37.344-.624-80.517-23.792-121.372-5.289-30.479,13.8-37.559,50.088-31.4,75.288C-880.957,753.638-826.282,796.525-727.814,802.473Z" transform="translate(968.499 -528.646)" fill="#fff"/>
    <path id="Trazado_11120" data-name="Trazado 11120" stroke="#e1edff" d="M-672.877,555.794c-3.989-.32-15.447-.072-27.711-10.046-7.1-5.771-22.13-17.875-35.182-9.169-10.538,7.03-7.221,23.23-19.063,27.854" fill="none" transform="translate(981.898 -533.527)" stroke-linecap="round" stroke-linejoin="round" stroke-width="1.193" opacity="0.6"/>
    <path id="Trazado_11121" data-name="Trazado 11121" d="M-597.4,782.635c93.083-31.089,35.888-115.6,35.888-115.6" transform="translate(996.625 -521.038)" fill="none" stroke="#c6dcff" stroke-linecap="round" stroke-linejoin="round" stroke-width="2"/>
    <path id="Trazado_11122" data-name="Trazado 11122" d="M-894.892,618.71c-51.082,27.5-43.862,117.047,31.922,134.088" transform="translate(965.733 -525.558)" fill="none" stroke="#c6dcff" stroke-linecap="round" stroke-linejoin="round" stroke-width="2"/>
    <path id="Trazado_11123" data-name="Trazado 11123" d="M-886.948,753.442c-63.888-27.716-60.852-113.88-10.338-141.075" transform="translate(965.039 -526.152)" fill="none" stroke="#c6dcff" stroke-miterlimit="10" stroke-width="2"/>
    <path id="Trazado_11124" data-name="Trazado 11124" d="M-537.006,726.6c-4.067,20.5-14,43.168-51.661,56.1" transform="translate(997.442 -515.466)" fill="none" stroke="#c6dcff" stroke-miterlimit="10" stroke-width="2"/>
    <path id="Trazado_11125" data-name="Trazado 11125" d="M-849.706,680.544s-2.026,13.565-7.2,15.022c5.082,2.6,5.617,5.6,6.816,11.807,1.763-8.078,3.74-10.993,6.321-12.188C-850.181,692.931-849.527,684.655-849.706,680.544Z" transform="translate(972.35 -519.774)" fill="#e1edff" opacity="0.8" style="mix-blend-mode: multiply;isolation: isolate"/>
    <path id="Trazado_11126" data-name="Trazado 11126" d="M-899.866,639.853s-2.187,13.346-7.3,14.709c4.974,2.639,5.459,5.6,6.555,11.735,1.85-7.938,3.839-10.786,6.4-11.926C-900.507,652.057-899.747,643.908-899.866,639.853Z" transform="translate(967.648 -523.581)" fill="#e1edff" opacity="0.4"/>
    <path id="Trazado_11127" data-name="Trazado 11127" d="M-571.789,703.071s-1.975,12.048-6.6,13.278c4.49,2.383,4.929,5.053,5.917,10.594,1.671-7.166,3.467-9.737,5.778-10.766C-572.367,714.088-571.681,706.731-571.789,703.071Z" transform="translate(998.404 -517.667)" fill="#e1edff"/>
    <path id="Trazado_11128" data-name="Trazado 11128" d="M-841.081,637.132s-5.379-1.722-4.274-6.476c1.012-4.352,3.434-7.039,5.222-7.35,1.426-.248,6.047,2.17.569,8.723" transform="translate(973.416 -525.13)" fill="none" stroke="#fff" stroke-miterlimit="10" stroke-width="0.168"/>
    <ellipse id="Elipse_1532" data-name="Elipse 1532" cx="3.108" cy="1.6" rx="3.108" ry="1.6" transform="matrix(0.136, -0.991, 0.991, 0.136, 131.87, 107.748)" fill="#fff"/>
    <path id="Trazado_11129" data-name="Trazado 11129" d="M-591.073,634.647a6.491,6.491,0,0,1,1.462,5.883c-1.285,6.047-4.563,9.827-7.029,10.3-1.965.38-8.421-2.842-1.016-12.05" transform="translate(996.276 -524.068)" fill="none" stroke="#fff" stroke-miterlimit="10" stroke-width="0.232"/>
    <ellipse id="Elipse_1533" data-name="Elipse 1533" cx="4.3" cy="2.214" rx="4.3" ry="2.214" transform="translate(395.925 123.072) rotate(-68.508)" fill="#fff"/>
    <path id="Trazado_11130" data-name="Trazado 11130" d="M-518.818,707.673a3.474,3.474,0,0,0-4.543-2.783c-3.286.773-18.232,5.961-17.812,7.824s19.78-.545,19.78-.545A3.537,3.537,0,0,0-518.818,707.673Z" transform="translate(1001.883 -517.511)" fill="#e1edff" style="mix-blend-mode: multiply;isolation: isolate"/>
    <path id="Trazado_11131" data-name="Trazado 11131" d="M-529.145,694.32a3.1,3.1,0,0,0-4.757.022c-2.131,2.13-11.042,13.092-9.848,14.309s14.763-9.707,14.763-9.707A3.158,3.158,0,0,0-529.145,694.32Z" transform="translate(1001.633 -518.591)" fill="#e1edff" style="mix-blend-mode: multiply;isolation: isolate"/>
    <path id="Trazado_11132" data-name="Trazado 11132" d="M-521.645,724.987a3.1,3.1,0,0,0-1.714-4.438c-2.751-1.232-16.168-5.654-16.88-4.1s14.33,10.335,14.33,10.335A3.158,3.158,0,0,0-521.645,724.987Z" transform="translate(1001.969 -516.446)" fill="#e1edff" style="mix-blend-mode: multiply;isolation: isolate"/>
    <path id="Trazado_11133" data-name="Trazado 11133" d="M-518.818,707.673a3.474,3.474,0,0,0-4.543-2.783c-3.286.773-18.232,5.961-17.812,7.824s19.78-.545,19.78-.545A3.537,3.537,0,0,0-518.818,707.673Z" transform="translate(1001.883 -517.511)" fill="#e1edff" style="mix-blend-mode: multiply;isolation: isolate"/>
    <path id="Trazado_11134" data-name="Trazado 11134" d="M-529.145,694.32a3.1,3.1,0,0,0-4.757.022c-2.131,2.13-11.042,13.092-9.848,14.309s14.763-9.707,14.763-9.707A3.158,3.158,0,0,0-529.145,694.32Z" transform="translate(1001.633 -518.591)" fill="#e1edff" style="mix-blend-mode: multiply;isolation: isolate"/>
    <path id="Trazado_11135" data-name="Trazado 11135" d="M-521.645,724.987a3.1,3.1,0,0,0-1.714-4.438c-2.751-1.232-16.168-5.654-16.88-4.1s14.33,10.335,14.33,10.335A3.158,3.158,0,0,0-521.645,724.987Z" transform="translate(1001.969 -516.446)" fill="#e1edff" style="mix-blend-mode: multiply;isolation: isolate"/>
    <path id="Trazado_11136" data-name="Trazado 11136" d="M-962.318,657.247a3.474,3.474,0,0,0,2.79,4.538c3.28.8,18.954,2.945,19.424,1.094s-17.88-8.474-17.88-8.474A3.537,3.537,0,0,0-962.318,657.247Z" transform="translate(962.475 -522.227)" fill="#e1edff" style="mix-blend-mode: multiply;isolation: isolate"/>
    <path id="Trazado_11137" data-name="Trazado 11137" d="M-959.668,673.708a3.1,3.1,0,0,0,4.25,2.136c2.866-.934,15.776-6.67,15.263-8.3s-17.558,1.966-17.558,1.966A3.159,3.159,0,0,0-959.668,673.708Z" transform="translate(962.717 -521.029)" fill="#e1edff" style="mix-blend-mode: multiply;isolation: isolate"/>
    <path id="Trazado_11138" data-name="Trazado 11138" d="M-952.364,643.223a3.1,3.1,0,0,0-.482,4.733c1.894,2.345,11.853,12.364,13.189,11.305s-8.093-15.705-8.093-15.705A3.158,3.158,0,0,0-952.364,643.223Z" transform="translate(963.291 -523.346)" fill="#e1edff" style="mix-blend-mode: multiply;isolation: isolate"/>
    <path id="Trazado_11139" data-name="Trazado 11139" d="M-962.318,657.247a3.474,3.474,0,0,0,2.79,4.538c3.28.8,18.954,2.945,19.424,1.094s-17.88-8.474-17.88-8.474A3.537,3.537,0,0,0-962.318,657.247Z" transform="translate(962.475 -522.227)" fill="#e1edff" style="mix-blend-mode: multiply;isolation: isolate"/>
    <path id="Trazado_11140" data-name="Trazado 11140" d="M-959.668,673.708a3.1,3.1,0,0,0,4.25,2.136c2.866-.934,15.776-6.67,15.263-8.3s-17.558,1.966-17.558,1.966A3.159,3.159,0,0,0-959.668,673.708Z" transform="translate(962.717 -521.029)" fill="#e1edff" style="mix-blend-mode: multiply;isolation: isolate"/>
    <path id="Trazado_11141" data-name="Trazado 11141" d="M-952.364,643.223a3.1,3.1,0,0,0-.482,4.733c1.894,2.345,11.853,12.364,13.189,11.305s-8.093-15.705-8.093-15.705A3.158,3.158,0,0,0-952.364,643.223Z" transform="translate(963.291 -523.346)" fill="#e1edff" style="mix-blend-mode: multiply;isolation: isolate"/>
    <path id="Trazado_11142" data-name="Trazado 11142" d="M-542.41,562.87h0l-.218-.06-69.6-19.232-29.334-8.106a15.435,15.435,0,0,0-3.246-.575c-8.5-.583-14.365,4.541-16.446,14.335-.022.106-53.882,213.206-54.494,217.732a13.114,13.114,0,0,0,.226,4.748,15.59,15.59,0,0,0,9.887,10.8l85.381,32.294a15.418,15.418,0,0,0,4.735,1.091,15.429,15.429,0,0,0,16-11.585l67.5-221.741c.032-.094.058-.191.088-.286l.007-.019a15.487,15.487,0,0,0,.655-3.509A15.43,15.43,0,0,0-542.41,562.87Z" transform="translate(985.543 -533.403)" fill="#f1f5fc" stroke="#c6c7c8" stroke-miterlimit="10" stroke-width="1"/>
    <path id="Trazado_11143" data-name="Trazado 11143" d="M-896.136,590.044l0,.019c.022.1.042.193.066.288l51.324,222.114a15.186,15.186,0,0,0,7,10.209v0l3.708,2.243" transform="translate(968.68 -528.24)" fill="none" stroke="#b1b3b4" stroke-miterlimit="10" stroke-width="1"/>
    <path id="Trazado_11144" data-name="Trazado 11144" d="M-760.819,565.837c-1.357-8.69-6.907-15.427-15.427-15.427a15.479,15.479,0,0,0-3.277.353l-100.571,20.509-.221.045h0a15.35,15.35,0,0,0-5.162,2.14,15.405,15.405,0,0,0-7.048,12.949,15.456,15.456,0,0,0,.415,3.545l0,.02c.023.1.043.195.068.292L-839.854,816.1a15.428,15.428,0,0,0,15.173,12.652,15.407,15.407,0,0,0,4.8-.766l87.389-26.379a15.43,15.43,0,0,0,11.153-14.822C-721.34,781-760.8,565.944-760.819,565.837Z" transform="translate(969.018 -531.947)" fill="#f1f5fc" stroke="#c6c7c8" stroke-miterlimit="10" stroke-width="1"/>
    <path id="Trazado_11145" data-name="Trazado 11145" d="M-736.139,758.365c0-1.464-31.053-180.01-31.053-180.01,0-.1.008-.191.008-.288a13.74,13.74,0,0,0-13.739-13.74,13.8,13.8,0,0,0-2.92.314h0L-867.3,582.663l-.2.041h0a13.742,13.742,0,0,0-10.874,13.439,13.773,13.773,0,0,0,.369,3.157h0l0,.018c.02.086.037.174.06.26l42.362,184.652A13.741,13.741,0,0,0-822.065,795.5a13.7,13.7,0,0,0,4.274-.681l71.719-23.25A13.742,13.742,0,0,0-736.139,758.365Z" transform="translate(970.342 -530.645)" fill="#e1edff"/>
    <path id="Trazado_11146" data-name="Trazado 11146" d="M-537.139,581.8l-66.926,218.791a15.233,15.233,0,0,1-7.753,9.737v0l-3.889,1.989" transform="translate(994.912 -529.011)" fill="none" stroke="#b1b3b4" stroke-miterlimit="10" stroke-width="1"/>
    <path id="Trazado_11147" data-name="Trazado 11147" d="M-701.764,739.509c.1-1.46,43.285-177.658,43.3-177.752,1.453-8.007,7.077-13.288,14.648-12.768a13.723,13.723,0,0,1,2.891.513h0l82.03,23.686.195.054h0a13.743,13.743,0,0,1,9.93,14.15,13.773,13.773,0,0,1-.584,3.124h0l-.005.018c-.026.084-.05.171-.078.255l-54.89,181.323a13.741,13.741,0,0,1-14.252,10.319,13.773,13.773,0,0,1-4.218-.972l-69.96-28.1A13.742,13.742,0,0,1-701.764,739.509Z" transform="translate(986.859 -532.083)" fill="#e1edff"/>
    <ellipse id="Elipse_1534" data-name="Elipse 1534" cx="7.858" cy="9.354" rx="7.858" ry="9.354" transform="translate(186.539 255.498)" fill="#fff" stroke="#c6c7c8" stroke-miterlimit="10" stroke-width="0.26"/>
    <circle id="Elipse_1535" data-name="Elipse 1535" cx="1.808" cy="1.808" r="1.808" transform="translate(371.346 17.571)" fill="#fff" stroke="#c6c7c8" stroke-miterlimit="10" stroke-width="0.26"/>
    <rect id="Rectángulo_5543" data-name="Rectángulo 5543" width="35.796" height="3.056" rx="1.397" transform="translate(377.475 18.997) rotate(15.575)" fill="#fff" stroke="#c6c7c8" stroke-miterlimit="10" stroke-width="0.26"/>
    <path id="Trazado_11148" data-name="Trazado 11148" d="M-789.606,771.389s22.992.227,24.607-22.09-3.388-30.053,1.317-36.436,7.726-23.079,1.095-35.665c-8-15.184-16.813-3.461-18.773-9.055s21.531-60.5-18.074-79.295c-33.38-15.842-63.337,9.432-55.848,71.8S-821.4,770.021-789.606,771.389Z" transform="translate(972.393 -528.783)" fill="#e1edff" opacity="0.4" style="mix-blend-mode: multiply;isolation: isolate"/>
    <path id="Trazado_11149" data-name="Trazado 11149" d="M-824.477,705.129a3.637,3.637,0,0,1-2.412-2.4c-1.143-3.273-.669-6.039.374-6.984.831-.755,4.864-1.087,3.991,5.482" transform="translate(975.096 -518.389)" fill="none" stroke="#fff" stroke-miterlimit="10" stroke-width="0.13"/>
    <ellipse id="Elipse_1536" data-name="Elipse 1536" cx="1.241" cy="2.411" rx="1.241" ry="2.411" transform="translate(148.987 178.472) rotate(-9.743)" fill="#fff"/>
    <path id="Trazado_11150" data-name="Trazado 11150" d="M-655.58,757.113s27.171,12.053,32-10.857c10.447-49.511,19.285-40.862,38.367-73.553,13.488-23.105,4.767-63.631-4.784-78.091-20.527-31.076-56.981-32.574-77.266,29.906S-683.934,742.663-655.58,757.113Z" transform="translate(988.888 -529.773)" fill="#e1edff" opacity="0.4" style="mix-blend-mode: multiply;isolation: isolate"/>
    <path id="Trazado_11151" data-name="Trazado 11151" d="M-591.724,613.738c3.367-19.786.061-36.853-7.384-38.12-3.892-.663-8.145,3.126-11.8,9.718h0c-.074.136-.15.271-.224.409-.845,1.518-3.927,6.873-6.356,8.694-2.842,2.131-6.831,2.733-7.05,8.908s5.342,4.409,4.937,12.641h0c-.043.441-.082.88-.118,1.317-.952,7.3-6.431,10.773-4.056,18.8,1.772,5.99,7.427,7.181,11.736,7.209C-602.761,643.378-595,632.987-591.724,613.738Z" transform="translate(994.086 -529.596)" fill="#e1edff"/>
    <path id="Trazado_11152" data-name="Trazado 11152" d="M-591.724,613.738c3.367-19.786.061-36.853-7.384-38.12-3.892-.663-8.145,3.126-11.8,9.718h0c-.074.136-.15.271-.224.409-.845,1.518-3.927,6.873-6.356,8.694-2.842,2.131-6.831,2.733-7.05,8.908s5.342,4.409,4.937,12.641h0c-.043.441-.082.88-.118,1.317-.952,7.3-6.431,10.773-4.056,18.8,1.772,5.99,7.427,7.181,11.736,7.209C-602.761,643.378-595,632.987-591.724,613.738Z" transform="translate(994.086 -529.596)" fill="#e1edff" style="mix-blend-mode: multiply;isolation: isolate"/>
    <path id="Trazado_11153" data-name="Trazado 11153" d="M-611.46,637.136c5.481-.23,13.382-9.968,16.038-31.083,1-7.918.817-14.364.005-17.731" transform="translate(995.309 -528.401)" fill="none" stroke="#fff" stroke-miterlimit="10" stroke-width="0.191"/>
    <circle id="Elipse_1537" data-name="Elipse 1537" cx="0.414" cy="0.414" r="0.414" transform="translate(381.635 108.319)" fill="#fff"/>
    <circle id="Elipse_1538" data-name="Elipse 1538" cx="0.414" cy="0.414" r="0.414" transform="translate(378.049 107.056)" fill="#fff"/>
    <circle id="Elipse_1539" data-name="Elipse 1539" cx="0.414" cy="0.414" r="0.414" transform="translate(398.481 56.879)" fill="#fff"/>
    <path id="Trazado_11154" data-name="Trazado 11154" d="M-816.865,634.639c-7.945-26.132-22.356-44.894-32.19-41.9-5.141,1.563-8.011,8.763-8.446,19.011h0c-.009.21-.018.421-.024.634-.1,2.362-.6,10.755-2.444,14.451-2.162,4.324-6.652,7.483-3.159,15.132s9.185,2.115,13.7,12.382h0q.325.845.656,1.675c3.287,9.469-1.27,17.026,6.509,25.355,5.8,6.212,17.242,7.7,22.754,5.7C-808.562,683.107-809.136,660.063-816.865,634.639Z" transform="translate(971.648 -528.018)" fill="#e1edff"/>
    <path id="Trazado_11155" data-name="Trazado 11155" d="M-816.865,634.639c-7.945-26.132-22.356-44.894-32.19-41.9-5.141,1.563-8.011,8.763-8.446,19.011h0c-.009.21-.018.421-.024.634-.1,2.362-.6,10.755-2.444,14.451-2.162,4.324-6.652,7.483-3.159,15.132s9.185,2.115,13.7,12.382h0q.325.845.656,1.675c3.287,9.469-1.27,17.026,6.509,25.355,5.8,6.212,17.242,7.7,22.754,5.7C-808.562,683.107-809.136,660.063-816.865,634.639Z" transform="translate(971.648 -528.018)" fill="#e1edff" style="mix-blend-mode: multiply;isolation: isolate"/>
    <path id="Trazado_11156" data-name="Trazado 11156" d="M-615.186,728.878c1.846-18.7.233-33.356-10.4-35.987-3.916-.969-7.949,2.977-11.112,9.215h0c-.065.128-.13.256-.194.386-.732,1.437-3.415,6.5-5.716,8.232-2.692,2.021-6.659,2.6-6.4,8.435s5.717,4.149,5.951,11.927h0c-.008.417-.014.831-.016,1.243-.388,6.9-5.63,10.2-2.615,17.773,2.248,5.654,9.687,10.11,14.031,10.566C-623.027,761.576-616.983,747.071-615.186,728.878Z" transform="translate(991.797 -518.633)" fill="#e1edff"/>
    <path id="Trazado_11157" data-name="Trazado 11157" d="M-615.186,728.878c1.846-18.7.233-33.356-10.4-35.987-3.916-.969-7.949,2.977-11.112,9.215h0c-.065.128-.13.256-.194.386-.732,1.437-3.415,6.5-5.716,8.232-2.692,2.021-6.659,2.6-6.4,8.435s5.717,4.149,5.951,11.927h0c-.008.417-.014.831-.016,1.243-.388,6.9-5.63,10.2-2.615,17.773,2.248,5.654,9.687,10.11,14.031,10.566C-623.027,761.576-616.983,747.071-615.186,728.878Z" transform="translate(991.797 -518.633)" fill="#e1edff" style="mix-blend-mode: multiply;isolation: isolate"/>
    <path id="Trazado_11158" data-name="Trazado 11158" d="M-662.679,731.675c-4.032,1.794-6.769,3.044-7.13,3.285-1.611,1.074-9.024,4.189-9.024,4.189-3.761,1.719-9.346,1.182-9.454,3.115a1.865,1.865,0,0,0,1.5,2.149l-2.793.107s-12.462-.86-12.355.967c-.645,3.331,3.008,4.19,3.008,4.19s-12.462-.323-11.5,1.719,5.371,3.868,11.173,4.942c4.592.851,12.587.641,15.255.537C-672.437,753.149-667.564,742.458-662.679,731.675Z" transform="translate(986.048 -514.991)" fill="#e07070"/>
    <path id="Trazado_11159" data-name="Trazado 11159" d="M-663.763,733.3c-4.885,10.783-21.311,25.2-21.311,25.2s-14.825,7.091-13.751,10.1c.539,1.508,2.454,1.746,4.23,1.611a17.517,17.517,0,0,0,3.4-.644s1.351-.383,4.316-1.231c3.132-.9,8.065-2.313,15.128-4.354,13.751-3.975,13.322-5.587,18.586-12.141a39.665,39.665,0,0,0,6.922-12.993c.04-.141.061-.221.061-.221a62.565,62.565,0,0,1,7.091-2.256c5.694-1.611,13.106-1.333,15.041-1.226.25-.959,1.066-2.649,1.289-3.815a91.067,91.067,0,0,0,2.631-17.078S-649.76,727.071-663.763,733.3Z" transform="translate(987.132 -516.621)" fill="#e58181"/>
    <path id="Trazado_11160" data-name="Trazado 11160" d="M-697.818,765.11a6.211,6.211,0,0,0,3.123.4,17.517,17.517,0,0,0,3.4-.644s0-.59-2.2-.214C-694.252,764.783-697.818,765.11-697.818,765.11Z" transform="translate(987.231 -511.918)" fill="#e07070"/>
    <path id="Trazado_11161" data-name="Trazado 11161" d="M-709.7,750.686c2.256,1.763,4.561,2.632,8.462,3.518,0,0,.552-1.63-.337-2.108S-708.926,749.39-709.7,750.686Z" transform="translate(986.12 -513.25)" fill="#e07070" opacity="0.5" style="mix-blend-mode: multiply;isolation: isolate"/>
    <path id="Trazado_11162" data-name="Trazado 11162" d="M-646.786,726.23l-3.905,11.28,1.952-.723S-646.352,728.833-646.786,726.23Z" transform="translate(991.64 -515.501)" fill="#e07070"/>
    <path id="Trazado_11163" data-name="Trazado 11163" d="M-699.91,748.2a134.745,134.745,0,0,0,18.971-.761" transform="translate(987.035 -513.517)" fill="none" stroke="#e07070" stroke-miterlimit="10" stroke-width="0.224" opacity="0.5" style="mix-blend-mode: multiply;isolation: isolate"/>
    <path id="Trazado_11164" data-name="Trazado 11164" d="M-688.809,743.6s8.017.434,12.436-3.264" transform="translate(988.074 -514.181)" fill="none" stroke="#e07070" stroke-miterlimit="10" stroke-width="0.224" opacity="0.5" style="mix-blend-mode: multiply;isolation: isolate"/>
    <path id="Trazado_11165" data-name="Trazado 11165" d="M-685.009,754.12s-.912,1.719-.482,2.255,1.79,2.042,5.729,0,8.029-7.838,8.029-7.838Z" transform="translate(988.373 -513.414)" fill="#e07070" opacity="0.5"/>
    <path id="Trazado_11166" data-name="Trazado 11166" d="M-661.219,722.121a64.778,64.778,0,0,0-9.049,8.235c-.576,1-1.143,2.022-1.733,3.086-2.655,4.8-3.632,9.636-8.456,15.324-4.451,5.121-5.433,8.989-3.975,10.85s8.263-1.326,11.6-6.123,14.919-17.7,17.081-19.124c1.231-.808,19.134-10.953,34.324-19.541l-.527-6.712c-3.691,3.288-8.639,4.545-13.589,5.445C-644.671,715.274-653.516,716.7-661.219,722.121Z" transform="translate(988.424 -517.195)" fill="#e58181"/>
    <path id="Trazado_11167" data-name="Trazado 11167" d="M-660.774,718.365a34.119,34.119,0,0,0-10.759,11.994,64.778,64.778,0,0,1,9.049-8.235c7.7-5.421,16.547-6.847,25.677-8.559,4.95-.9,9.9-2.156,13.589-5.445l0-.035C-635.874,711.441-653.911,713.539-660.774,718.365Z" transform="translate(989.69 -517.198)" fill="#ef9595"/>
    <path id="Trazado_11168" data-name="Trazado 11168" d="M-684.486,755.883c1.339,1.711,7.2-.844,10.73-4.993,0,0-2.33-2.181-3.021-2.681s-2.047.021-4.237,2.211A18.332,18.332,0,0,0-684.486,755.883Z" transform="translate(988.478 -513.461)" fill="#e07070"/>
    <path id="Trazado_11169" data-name="Trazado 11169" d="M-673.876,751.266c12.247-10.669,17.434-19.34,17.434-19.34" transform="translate(989.471 -514.968)" fill="none" stroke="#e07070" stroke-miterlimit="10" stroke-width="0.224"/>
    <path id="Trazado_11170" data-name="Trazado 11170" d="M-656.419,731.784c-2.523,3.178-10.137,11.746-10.137,11.746h0a12.827,12.827,0,0,0-1.314,1.255l-3.452,4.176s5.841-3.538,7.344-5.041c.782-.782,1.765-1.628,2.531-2.263a8.805,8.805,0,0,0,1.23-.993C-658.551,738.918-656.378,734.168-656.419,731.784Z" transform="translate(989.71 -514.981)" fill="#e07070" opacity="0.5"/>
    <path id="Trazado_11171" data-name="Trazado 11171" d="M-650.691,737.169a17.185,17.185,0,0,1,11.5-5.639,76.17,76.17,0,0,0,11.925-1.658l-1.289,3.815a61.487,61.487,0,0,0-11.278.46A55.513,55.513,0,0,0-650.691,737.169Z" transform="translate(991.64 -515.16)" fill="#e07070" opacity="0.5"/>
    <path id="Trazado_11172" data-name="Trazado 11172" d="M-661.759,754.006c-7.43,5.429-16.574,6.572-24.289,11.144q-.937.55-1.859,1.085c3.132-.9,8.065-2.313,15.128-4.354,13.751-3.975,13.322-5.587,18.586-12.141a39.665,39.665,0,0,0,6.922-12.993A45.5,45.5,0,0,1-661.759,754.006Z" transform="translate(988.158 -514.517)" fill="#e07070" opacity="0.5"/>
    <path id="Trazado_11173" data-name="Trazado 11173" d="M-670.434,581.784c3.65,1.99,7.631,3.98,7.3,7.962-.332,3.649-4.645,6.967-3.318,11.28,6.32-2.408,15.369-2.359,18.729-9.262q-1.685-.956-3.49-1.892c-8.715-4.512-16.866-8.773-23.12-12.057C-673.082,579.286-671.978,580.9-670.434,581.784Z" transform="translate(989.428 -529.384)" fill="#e8006a"/>
    <path id="Trazado_11174" data-name="Trazado 11174" d="M-639.822,609.546a25.7,25.7,0,0,1,13.313,4.8,36.887,36.887,0,0,0-6.329-10.589C-635.442,605.41-638,607.066-639.822,609.546Z" transform="translate(992.656 -526.957)" fill="#e8006a"/>
    <path id="Trazado_11175" data-name="Trazado 11175" d="M-689.015,568.126a10.228,10.228,0,0,0-4.016-.2c-5.155,1-13.761,4.032-23.9,7.9-31.145-9.6-36.134-7.9-36.134-7.9s-.374.445-.971,1.17c12.664,2.327,25.279,4.327,37.345,8.249C-707.693,573.7-698.557,570.065-689.015,568.126Z" transform="translate(981.972 -530.32)" fill="#ff4399"/>
    <path id="Trazado_11176" data-name="Trazado 11176" d="M-613.436,623.776a30.568,30.568,0,0,0-1.62-6.094,25.7,25.7,0,0,0-13.313-4.8c1.818-2.48,4.38-4.136,6.983-5.789-4.216-5.045-10.156-9.9-18.112-14.421-3.36,6.9-12.409,6.854-18.729,9.262-1.328-4.313,2.985-7.631,3.318-11.28.331-3.982-3.649-5.972-7.3-7.962-1.544-.882-2.649-2.5-3.9-3.969-7.3-3.834-12.019-6.334-12.019-6.334a39.485,39.485,0,0,0-10.12-4.29c-9.542,1.939-18.678,5.578-27.674,9.22-12.066-3.922-24.681-5.922-37.345-8.249-2.428,2.945-8.607,10.565-9.008,12.3,2.162,1.829,14.7,12.612,36.533,25.513s64.464,35.043,73.044,39.985,27.452,14.491,29.614,14.491S-611.606,635.416-613.436,623.776Z" transform="translate(981.202 -530.293)" fill="#ff036a"/>
    <path id="Trazado_11177" data-name="Trazado 11177" d="M-673.932,607.769c.233-.519-.128-.709-.422-.222-3.281,5.423-6.536,11.615-9.25,17.359-.014.03-.016.053-.028.081a1.178,1.178,0,0,0-.055.157,1.054,1.054,0,0,0-.027.117.616.616,0,0,0-.005.108.5.5,0,0,0,.012.127.248.248,0,0,0,.018.043.249.249,0,0,0,.06.1.208.208,0,0,0,.056.035.226.226,0,0,0,.06.026.277.277,0,0,0,.115-.007.313.313,0,0,0,.044-.01.526.526,0,0,0,.112-.062.674.674,0,0,0,.086-.066,1.1,1.1,0,0,0,.08-.09.967.967,0,0,0,.1-.136c.018-.025.034-.041.051-.069C-679.754,619.758-676.519,613.553-673.932,607.769Z" transform="translate(988.55 -526.629)" fill="#e8006a"/>
    <path id="Trazado_11178" data-name="Trazado 11178" d="M-630.969,606.773s-.929,1.828-2.093,4.26a31.01,31.01,0,0,1,5.858,2.874A34.958,34.958,0,0,0-630.969,606.773Z" transform="translate(993.289 -526.675)" fill="#dedfe0"/>
    <path id="Trazado_11179" data-name="Trazado 11179" d="M-626.816,613.543a31.01,31.01,0,0,0-5.858-2.874c-2.048,4.283-4.821,10.441-4.516,11.785.416,1.83,11.971,5.657,11.971,5.657a31.614,31.614,0,0,0,.085-8.317A30.659,30.659,0,0,0-626.816,613.543Z" transform="translate(992.901 -526.31)" fill="#eaeaea"/>
    <path id="Trazado_11180" data-name="Trazado 11180" d="M-710.076,577.949a37.542,37.542,0,0,1,12.414-3.625c5.5-.537,13.233,3.184,13.233,3.184l23.686,13.241-9.271,15.331s-37.251-18.136-44.735-25.288C-714.524,580.314-710.932,578.414-710.076,577.949Z" transform="translate(985.648 -529.715)" fill="#eaeaea"/>
    <path id="Trazado_11181" data-name="Trazado 11181" d="M-761.532,579.688c-1.005-.628-2.637-.683-2.705.257s.467,1.161.007,1.771-1.592.993-.919,1.417c72.965,45.921,142.142,80.931,142.939,81.4s.62-.711.472-1.289,2.786-1.674,1.626-2.363C-622.143,659.678-675.665,633.263-761.532,579.688Z" transform="translate(980.913 -529.252)" fill="#e8006a"/>
    <rect id="Rectángulo_5544" data-name="Rectángulo 5544" width="1.682" height="6.729" rx="0.769" transform="matrix(0.433, -0.901, 0.901, 0.433, 318.78, 85.211)" fill="#eaeaea"/>
    <path id="Trazado_11182" data-name="Trazado 11182" d="M-634.418,611.074c1.715-3.771,2.928-6.725,2.971-7.073.083-.67-27.382-12.01-27.382-12.01l-8.677,16.441s2.469,1.472,6.208,3.53C-652.517,610.043-642.991,609.15-634.418,611.074Z" transform="translate(990.067 -528.058)" fill="#dedfe0"/>
    <path id="Trazado_11183" data-name="Trazado 11183" d="M-634.949,609.534c-8.573-1.925-18.1-1.031-26.88.888a181.035,181.035,0,0,0,21.371,10.243C-638.542,617.193-636.532,613.016-634.949,609.534Z" transform="translate(990.598 -526.517)" fill="#eaeaea"/>
    <path id="Trazado_11184" data-name="Trazado 11184" d="M-732.561,589.7c-13.212,5.191-13.247,23-1.247,27.616,9.024,3.468,19.8-1.919,21.186-12C-711.219,595.142-723,585.942-732.561,589.7Z" transform="translate(983.038 -528.352)" fill="#5c6e94"/>
    <path id="Trazado_11185" data-name="Trazado 11185" d="M-731.48,593.556c-9.258,3.637-9.282,16.12-.874,19.35,6.324,2.43,13.873-1.344,14.846-8.407C-716.524,597.372-724.781,590.924-731.48,593.556Z" transform="translate(983.422 -527.967)" fill="#6e83b1"/>
    <path id="Trazado_11186" data-name="Trazado 11186" d="M-731.156,594.706c-8.08,3.175-8.1,14.068-.762,16.889,5.518,2.12,12.106-1.173,12.956-7.338C-718.105,598.036-725.31,592.409-731.156,594.706Z" transform="translate(983.536 -527.853)" fill="#eaeaea"/>
    <path id="Trazado_11187" data-name="Trazado 11187" d="M-728.268,601.545c-.611-.22.905-4.9,1.4-5.667s2.715.155,2.517.992S-727.4,601.86-728.268,601.545Z" transform="translate(984.369 -527.721)" fill="#eaeaea" style="mix-blend-mode: multiply;isolation: isolate"/>
    <path id="Trazado_11188" data-name="Trazado 11188" d="M-729.16,604.18c.611.221-.905,4.9-1.4,5.668s-2.715-.155-2.517-.992S-730.033,603.865-729.16,604.18Z" transform="translate(983.932 -526.919)" fill="#eaeaea" style="mix-blend-mode: multiply;isolation: isolate"/>
    <path id="Trazado_11189" data-name="Trazado 11189" d="M-727.346,602.185c-.277-.587,4.1-2.821,4.994-3.02s1.811,2.03,1.078,2.481S-726.952,603.025-727.346,602.185Z" transform="translate(984.468 -527.388)" fill="#eaeaea" style="mix-blend-mode: multiply;isolation: isolate"/>
    <path id="Trazado_11190" data-name="Trazado 11190" d="M-729.887,603.319c.276.587-4.1,2.821-4.994,3.019s-1.811-2.03-1.078-2.48S-730.281,602.479-729.887,603.319Z" transform="translate(983.638 -527.03)" fill="#eaeaea" style="mix-blend-mode: multiply;isolation: isolate"/>
    <path id="Trazado_11191" data-name="Trazado 11191" d="M-727.316,603.227c.221-.61,4.9.906,5.668,1.4s-.155,2.715-.992,2.517S-727.629,604.1-727.316,603.227Z" transform="translate(984.47 -527.02)" fill="#eaeaea" style="mix-blend-mode: multiply;isolation: isolate"/>
    <path id="Trazado_11192" data-name="Trazado 11192" d="M-729.951,602.336c-.22.611-4.9-.907-5.667-1.4s.155-2.715.992-2.517S-729.636,601.463-729.951,602.336Z" transform="translate(983.668 -527.457)" fill="#eaeaea" style="mix-blend-mode: multiply;isolation: isolate"/>
    <path id="Trazado_11193" data-name="Trazado 11193" d="M-728.177,604.15c.587-.277,2.821,4.1,3.02,4.994s-2.031,1.811-2.481,1.078S-729.017,604.544-728.177,604.15Z" transform="translate(984.36 -526.921)" fill="#eaeaea" style="mix-blend-mode: multiply;isolation: isolate"/>
    <path id="Trazado_11194" data-name="Trazado 11194" d="M-729.311,601.609c-.587.276-2.821-4.1-3.02-5s2.031-1.81,2.481-1.078S-728.471,601.214-729.311,601.609Z" transform="translate(984.002 -527.751)" fill="#eaeaea" style="mix-blend-mode: multiply;isolation: isolate"/>
    <path id="Trazado_11195" data-name="Trazado 11195" d="M-664.2,626.537c-13.212,5.191-13.247,23-1.247,27.616,9.024,3.468,19.8-1.919,21.186-12C-642.858,631.982-654.641,622.782-664.2,626.537Z" transform="translate(989.433 -524.906)" fill="#5c6e94"/>
    <path id="Trazado_11196" data-name="Trazado 11196" d="M-663.119,630.4c-9.258,3.637-9.282,16.12-.874,19.35,6.323,2.43,13.872-1.344,14.846-8.407C-648.163,634.212-656.419,627.764-663.119,630.4Z" transform="translate(989.816 -524.521)" fill="#6e83b1"/>
    <path id="Trazado_11197" data-name="Trazado 11197" d="M-662.8,631.546c-8.079,3.175-8.1,14.068-.762,16.889,5.519,2.12,12.107-1.173,12.956-7.338C-649.744,634.876-656.949,629.249-662.8,631.546Z" transform="translate(989.93 -524.407)" fill="#eaeaea"/>
    <path id="Trazado_11198" data-name="Trazado 11198" d="M-659.908,638.385c-.61-.22.906-4.9,1.4-5.667s2.715.155,2.516.992S-659.035,638.7-659.908,638.385Z" transform="translate(990.764 -524.275)" fill="#eaeaea" style="mix-blend-mode: multiply;isolation: isolate"/>
    <path id="Trazado_11199" data-name="Trazado 11199" d="M-660.8,641.02c.611.221-.907,4.9-1.4,5.668s-2.715-.155-2.516-.992S-661.672,640.706-660.8,641.02Z" transform="translate(990.327 -523.473)" fill="#eaeaea" style="mix-blend-mode: multiply;isolation: isolate"/>
    <path id="Trazado_11200" data-name="Trazado 11200" d="M-658.986,639.025c-.276-.587,4.1-2.821,5-3.02s1.81,2.03,1.078,2.481S-658.591,639.865-658.986,639.025Z" transform="translate(990.862 -523.942)" fill="#eaeaea" style="mix-blend-mode: multiply;isolation: isolate"/>
    <path id="Trazado_11201" data-name="Trazado 11201" d="M-661.526,640.159c.276.587-4.1,2.821-5,3.019s-1.81-2.03-1.078-2.48S-661.921,639.319-661.526,640.159Z" transform="translate(990.033 -523.584)" fill="#eaeaea" style="mix-blend-mode: multiply;isolation: isolate"/>
    <path id="Trazado_11202" data-name="Trazado 11202" d="M-658.955,640.067c.221-.61,4.9.907,5.668,1.4s-.155,2.715-.992,2.517S-659.269,640.94-658.955,640.067Z" transform="translate(990.865 -523.574)" fill="#eaeaea" style="mix-blend-mode: multiply;isolation: isolate"/>
    <path id="Trazado_11203" data-name="Trazado 11203" d="M-661.59,639.176c-.221.611-4.9-.907-5.668-1.4s.155-2.715.992-2.517S-661.275,638.3-661.59,639.176Z" transform="translate(990.063 -524.011)" fill="#eaeaea" style="mix-blend-mode: multiply;isolation: isolate"/>
    <path id="Trazado_11204" data-name="Trazado 11204" d="M-659.817,640.99c.588-.277,2.822,4.1,3.02,4.994s-2.03,1.811-2.481,1.078S-660.657,641.384-659.817,640.99Z" transform="translate(990.754 -523.476)" fill="#eaeaea" style="mix-blend-mode: multiply;isolation: isolate"/>
    <path id="Trazado_11205" data-name="Trazado 11205" d="M-660.95,638.449c-.588.276-2.821-4.1-3.02-5s2.03-1.81,2.481-1.078S-660.11,638.055-660.95,638.449Z" transform="translate(990.396 -524.305)" fill="#eaeaea" style="mix-blend-mode: multiply;isolation: isolate"/>
    <rect id="Rectángulo_5545" data-name="Rectángulo 5545" width="1.682" height="6.729" rx="0.769" transform="matrix(0.433, -0.901, 0.901, 0.433, 301.112, 74.443)" fill="#eaeaea"/>
    <path id="Trazado_11206" data-name="Trazado 11206" d="M-710.194,580.3c2.74-2.467,5.282-1.6,8.522.13,1.723.922-2.9,9.465-4.933,8.483C-709.511,587.508-715.5,585.077-710.194,580.3Z" transform="translate(985.875 -529.295)" fill="#e8006a"/>
    <path id="Trazado_11207" data-name="Trazado 11207" d="M-758.933,575.546s15.306,9.857,18.3,6.054-14.518-10.852-14.518-10.852Z" transform="translate(981.514 -530.045)" fill="#ffb45a"/>
    <path id="Trazado_11208" data-name="Trazado 11208" d="M-626.163,634.13c-4.831-2.229-13.706-5.79-15.609-2.875-2.188,3.353,9.792,7.677,14,9.071Z" transform="translate(992.449 -524.488)" fill="#ffb45a"/>
    <path id="Trazado_11209" data-name="Trazado 11209" d="M-684.844,590.026a.8.8,0,0,1-1.12.189.8.8,0,0,1-.188-1.12.8.8,0,0,1,1.12-.188A.8.8,0,0,1-684.844,590.026Z" transform="translate(988.309 -528.36)" fill="none" stroke="#eaeaea" stroke-miterlimit="10" stroke-width="0.26"/>
    <path id="Trazado_11210" data-name="Trazado 11210" d="M-674.537,593.019a.786.786,0,0,1-1.095.185.786.786,0,0,1-.184-1.095.785.785,0,0,1,1.095-.184A.784.784,0,0,1-674.537,593.019Z" transform="translate(989.276 -528.078)" fill="none" stroke="#eaeaea" stroke-miterlimit="10" stroke-width="0.26"/>
    <line id="Línea_1809" data-name="Línea 1809" y1="3.866" x2="2.869" transform="translate(223.825 41.64)" fill="none" stroke="#ffb45a" stroke-linecap="round" stroke-linejoin="round" stroke-width="0.26" opacity="0.5" style="mix-blend-mode: multiply;isolation: isolate"/>
    <line id="Línea_1810" data-name="Línea 1810" y1="3.866" x2="2.869" transform="translate(225.496 42.699)" fill="none" stroke="#ffb45a" stroke-linecap="round" stroke-linejoin="round" stroke-width="0.26" opacity="0.5" style="mix-blend-mode: multiply;isolation: isolate"/>
    <line id="Línea_1811" data-name="Línea 1811" y1="3.866" x2="2.869" transform="translate(227.788 43.756)" fill="none" stroke="#ffb45a" stroke-linecap="round" stroke-linejoin="round" stroke-width="0.26" opacity="0.5" style="mix-blend-mode: multiply;isolation: isolate"/>
    <line id="Línea_1812" data-name="Línea 1812" y1="3.866" x2="2.869" transform="translate(230.075 45.011)" fill="none" stroke="#ffb45a" stroke-linecap="round" stroke-linejoin="round" stroke-width="0.26" opacity="0.5" style="mix-blend-mode: multiply;isolation: isolate"/>
    <line id="Línea_1813" data-name="Línea 1813" y1="3.866" x2="2.869" transform="translate(232.507 46.108)" fill="none" stroke="#ffb45a" stroke-linecap="round" stroke-linejoin="round" stroke-width="0.26" opacity="0.5" style="mix-blend-mode: multiply;isolation: isolate"/>
    <line id="Línea_1814" data-name="Línea 1814" y1="3.866" x2="2.869" transform="translate(234.863 47.252)" fill="none" stroke="#ffb45a" stroke-linecap="round" stroke-linejoin="round" stroke-width="0.26" opacity="0.5" style="mix-blend-mode: multiply;isolation: isolate"/>
    <line id="Línea_1815" data-name="Línea 1815" y1="2.985" x2="2.215" transform="translate(237.343 48.777)" fill="none" stroke="#ffb45a" stroke-linecap="round" stroke-linejoin="round" stroke-width="0.26" opacity="0.5" style="mix-blend-mode: multiply;isolation: isolate"/>
    <line id="Línea_1816" data-name="Línea 1816" x1="1.663" y2="4.518" transform="translate(363.743 110.104)" fill="none" stroke="#ffb45a" stroke-linecap="round" stroke-linejoin="round" stroke-width="0.26" opacity="0.5" style="mix-blend-mode: multiply;isolation: isolate"/>
    <line id="Línea_1817" data-name="Línea 1817" x1="1.663" y2="4.518" transform="translate(361.446 109.175)" fill="none" stroke="#ffb45a" stroke-linecap="round" stroke-linejoin="round" stroke-width="0.26" opacity="0.5" style="mix-blend-mode: multiply;isolation: isolate"/>
    <line id="Línea_1818" data-name="Línea 1818" x1="1.663" y2="4.518" transform="translate(359.128 108.246)" fill="none" stroke="#ffb45a" stroke-linecap="round" stroke-linejoin="round" stroke-width="0.26" opacity="0.5" style="mix-blend-mode: multiply;isolation: isolate"/>
    <line id="Línea_1819" data-name="Línea 1819" x1="1.663" y2="4.518" transform="translate(356.686 107.445)" fill="none" stroke="#ffb45a" stroke-linecap="round" stroke-linejoin="round" stroke-width="0.26" opacity="0.5" style="mix-blend-mode: multiply;isolation: isolate"/>
    <line id="Línea_1820" data-name="Línea 1820" x1="1.663" y2="4.518" transform="translate(354.362 106.577)" fill="none" stroke="#ffb45a" stroke-linecap="round" stroke-linejoin="round" stroke-width="0.26" opacity="0.5" style="mix-blend-mode: multiply;isolation: isolate"/>
    <line id="Línea_1821" data-name="Línea 1821" x1="1.284" y2="3.488" transform="translate(352.353 106.216)" fill="none" stroke="#ffb45a" stroke-linecap="round" stroke-linejoin="round" stroke-width="0.26" opacity="0.5" style="mix-blend-mode: multiply;isolation: isolate"/>
    <path id="Trazado_11211" data-name="Trazado 11211" d="M-670.428,619.434a.191.191,0,0,1-.189-.177.189.189,0,0,1,.176-.2l4.625-.334a.19.19,0,0,1,.2.176.19.19,0,0,1-.176.2l-4.625.332Z" transform="translate(989.776 -525.557)" fill="#e8006a"/>
    <path id="Trazado_11212" data-name="Trazado 11212" d="M-668.211,620.55a.191.191,0,0,1-.189-.177.189.189,0,0,1,.176-.2l4.624-.332a.193.193,0,0,1,.2.176.191.191,0,0,1-.176.2l-4.625.332Z" transform="translate(989.983 -525.453)" fill="#e8006a"/>
    <path id="Trazado_11213" data-name="Trazado 11213" d="M-665.7,621.548a.191.191,0,0,1-.189-.177.19.19,0,0,1,.176-.2l4.623-.332a.191.191,0,0,1,.2.176.191.191,0,0,1-.176.2l-4.625.332Z" transform="translate(990.217 -525.36)" fill="#e8006a"/>
    <path id="Trazado_11214" data-name="Trazado 11214" d="M-623.41,593.616q-1.053-.363-2.046-.762c-10.265-4.134-19.189-9.067-25.261-9.6a21.953,21.953,0,0,0-3.675-.005c9.193,1.393,17.284,7.192,26.6,9.521A34,34,0,0,0-623.41,593.616Z" transform="translate(991.293 -528.883)" fill="#ef9595"/>
    <path id="Trazado_11215" data-name="Trazado 11215" d="M-593.109,598.182c-4.741,0-18.824-1.051-29.025-4.572a34,34,0,0,1-4.383-.846c-9.316-2.329-17.406-8.128-26.6-9.521a23.9,23.9,0,0,0-6.532,1.462c-.43.166-.665.277-.665.277s9.61,5.2,10.872,6.534,4.022,5.3-.758,8.116l-.506.294c-5.172,2.976-17.984,9.491-17.307,13.39,1.084,5.867,14.333.063,24.667-2.734a23.912,23.912,0,0,1,15.105.561l.221.069c9.822,3.1,28.254,10.383,31.166,10.912.119-.53.938-3.075,1.094-3.73.059-.252.12-.508.184-.774C-594.147,611.616-591.844,601.975-593.109,598.182Z" transform="translate(990.017 -528.876)" fill="#e58181"/>
    <path id="Trazado_11216" data-name="Trazado 11216" d="M-599.183,616c-8.054-1.333-15.9-3.272-24.016-5.347a69.13,69.13,0,0,0-8.243-1.835c9.822,3.1,28.254,10.383,31.166,10.912C-600.157,619.2-599.338,616.656-599.183,616Z" transform="translate(993.44 -526.484)" fill="#e07070" opacity="0.5"/>
    <path id="Trazado_11217" data-name="Trazado 11217" d="M-646.239,594.035c.488-7.063-7.947-8.105-14.069-9.456-.43.166-.665.277-.665.277s9.61,5.2,10.872,6.534,4.022,5.3-.758,8.116l-.506.294C-648.683,598.47-646.419,596.744-646.239,594.035Z" transform="translate(990.678 -528.751)" fill="#e07070"/>
    <path id="Trazado_11218" data-name="Trazado 11218" d="M-666.436,609.409s3.025-3.569,4.3-3.144A5.494,5.494,0,0,1-659,611.989c-1.133.65-4.65,1.45-6.866.383S-666.436,609.409-666.436,609.409Z" transform="translate(990.112 -526.726)" fill="#e07070"/>
    <path id="Trazado_11219" data-name="Trazado 11219" d="M-792.128,664.972a48.455,48.455,0,0,1,5.7-3.44,38.886,38.886,0,0,1,5.508-2.4,17.119,17.119,0,0,1,5.595-1.045c3.928.037,7.3,2.7,10.23,5.029,1.6,1.27,3.169,2.583,4.862,3.728a15.1,15.1,0,0,0,5.01,2.375,36.034,36.034,0,0,0,3.977.573c1.156.13,2.314.233,3.475.3,1.267.076,2.543.127,3.812.086l.172-.007c.641-.033.547-1.023-.092-.992-.867.045-1.743.02-2.61-.014a66.58,66.58,0,0,1-7.189-.7,12.023,12.023,0,0,1-2.873-.716,15.634,15.634,0,0,1-2.462-1.3,56.836,56.836,0,0,1-4.9-3.677c-3.032-2.427-6.408-5.2-10.418-5.63a15.063,15.063,0,0,0-5.637.644,33.492,33.492,0,0,0-5.6,2.2,46.428,46.428,0,0,0-7.026,4.1c-.037.027-.074.053-.113.079a.5.5,0,0,0,.587.8Z" transform="translate(978.335 -521.968)" fill="#f49e40"/>
    <path id="Trazado_11220" data-name="Trazado 11220" d="M-668.706,700.1c0-9.1-10.559-16.8-19.232-13.4a14.794,14.794,0,0,0-9.644,12.805l-.005.083q-.036.517-.034,1.031c0,.049,0,.1,0,.148q.007.5.046.986c0,.047.007.093.01.14.016.182.036.363.059.544.005.046.014.091.02.137.043.306.094.611.156.914.022.108.046.216.071.324.052.229.109.456.173.681.037.129.074.258.115.386q.072.231.152.46.1.285.214.566c.047.117.1.232.145.347.1.218.195.433.3.645.047.1.1.188.148.282.1.2.213.391.328.583.053.087.1.173.159.258.125.2.256.393.392.584.046.065.091.13.138.195.162.22.332.433.51.643.05.06.1.12.153.179.186.212.377.42.578.621l.136.131c.216.21.438.414.671.611l.045.036c.234.2.479.382.729.562l.127.091c.253.177.515.346.785.507l.16.094c.274.159.557.311.849.453l.138.065c.309.148.627.286.956.413a15.18,15.18,0,0,0,2.471.718,15.156,15.156,0,0,0,16.779-8.371,14.009,14.009,0,0,0,.741-2.085,14.619,14.619,0,0,0,.355-1.761c.038-.277.065-.553.082-.829.011-.16.012-.319.016-.478C-668.71,700.3-668.706,700.2-668.706,700.1Z" transform="translate(987.25 -519.275)" fill="#46597c"/>
    <path id="Trazado_11221" data-name="Trazado 11221" d="M-690.161,688.687c-12.686,4.971-12.734,22.071-1.22,26.507,8.66,3.336,19-1.825,20.348-11.5C-669.678,693.932-680.981,685.09-690.161,688.687Z" transform="translate(987.041 -519.089)" fill="#5c6e94"/>
    <path id="Trazado_11222" data-name="Trazado 11222" d="M-689.125,692.392c-8.891,3.483-8.924,15.465-.855,18.574,6.067,2.338,13.316-1.278,14.256-8.057C-674.773,696.067-682.693,689.872-689.125,692.392Z" transform="translate(987.409 -518.72)" fill="#6e83b1"/>
    <path id="Trazado_11223" data-name="Trazado 11223" d="M-688.817,693.5c-7.759,3.04-7.788,13.5-.747,16.211,5.3,2.041,11.622-1.116,12.443-7.031C-676.292,696.7-683.2,691.3-688.817,693.5Z" transform="translate(987.519 -518.61)" fill="#eaeaea"/>
    <path id="Trazado_11224" data-name="Trazado 11224" d="M-677.122,702.108a7.251,7.251,0,0,0-.2-2.889,9.238,9.238,0,0,1-12.126,5.659,7.936,7.936,0,0,1-4.96-5.826,8.268,8.268,0,0,0,4.845,10.088C-684.269,711.18-677.943,708.023-677.122,702.108Z" transform="translate(987.52 -518.043)" fill="#eaeaea"/>
    <path id="Trazado_11225" data-name="Trazado 11225" d="M-702.559,665.478s4.064-3.026,6.1-.316-3.048,5.283-3.048,5.283S-701.656,666.713-702.559,665.478Z" transform="translate(986.788 -521.319)" fill="#06c"/>
    <path id="Trazado_11226" data-name="Trazado 11226" d="M-649.273,691.385s-1.624,6.642-4.256,7.129c2.4,1.524,2.534,3.035,2.846,6.171,1.242-3.929,2.355-5.286,3.691-5.762C-650.072,697.512-649.371,693.433-649.273,691.385Z" transform="translate(991.374 -518.76)" fill="#e1edff"/>
    <path id="Trazado_11227" data-name="Trazado 11227" d="M-710.482,658.92c-.562-.2-1.142-.393-1.743-.589-8.148-2.661-23.115,1.165-36.752,6.32a76.169,76.169,0,0,0-12.193,6.126C-745.122,663.993-727.861,655.593-710.482,658.92Z" transform="translate(981.305 -521.934)" fill="#3494f4"/>
    <path id="Trazado_11228" data-name="Trazado 11228" d="M-697.022,668.419c10.222,1.161,20.283.207,30.293.79-5.983-.886-12.689-.658-17.42-.658-12.307.5-15.134-1.165-17.628-3.16a38.45,38.45,0,0,0-9.309-5.175c3.037,1.668,5.856,3.61,9.1,5.554C-700.334,666.762-699.009,668.419-697.022,668.419Z" transform="translate(985.99 -521.676)" fill="#3494f4"/>
    <path id="Trazado_11229" data-name="Trazado 11229" d="M-652.9,671.574a27.411,27.411,0,0,0-7.767-2.168c-10.01-.583-20.071.372-30.293-.79-1.987,0-3.312-1.657-4.968-2.65-3.24-1.944-6.059-3.886-9.1-5.554-1.236-.513-2.586-1.032-4.081-1.553-17.379-3.327-34.64,5.073-50.688,11.856a138.667,138.667,0,0,0-16.077,11.5l12.805,28.1,106.414-10.144,10.852-16.317A22.235,22.235,0,0,0-652.9,671.574Z" transform="translate(979.93 -521.873)" fill="#1f7be8"/>
    <path id="Trazado_11230" data-name="Trazado 11230" d="M-655.657,699.45l-7.311-10.311s-3.231-5.03-8.928-4.656c-6.382.419-18.958-.332-27.813-1.663,0,0-17.628-11.3-22.284-13.715s-8.314-5.076-20.455-1.417-32.428,13.8-32.428,13.8-11.973,7.036-11.641,35.115,4.49,33.4,4.49,33.4,4.385-.64,11.688-2.13a141.133,141.133,0,0,1,9.055-21.044c4.313-7.962,14.265-14.6,22.559-11.612a90.085,90.085,0,0,0,50.084,4.819,189.6,189.6,0,0,0,17.959-10.61Z" transform="translate(978.934 -521.145)" fill="#06c"/>
    <path id="Trazado_11231" data-name="Trazado 11231" d="M-740.11,711.06c-8.293-2.985-18.246,3.65-22.559,11.612a141.135,141.135,0,0,0-9.055,21.044c17.331-3.538,51.094-11.869,81.7-27.837A90.085,90.085,0,0,1-740.11,711.06Z" transform="translate(980.318 -516.988)" fill="#005fad"/>
    <path id="Trazado_11232" data-name="Trazado 11232" d="M-665.126,672.8c.29-.378-.014-.648-.357-.316A139.316,139.316,0,0,0-676.54,684.7c-.018.022-.023.04-.038.061a.852.852,0,0,0-.073.12.793.793,0,0,0-.043.093.484.484,0,0,0-.021.092.457.457,0,0,0-.008.114c0,.014.007.026.01.04a.307.307,0,0,0,.042.1.268.268,0,0,0,.046.047.261.261,0,0,0,.051.04.3.3,0,0,0,.107.028.26.26,0,0,0,.042,0,.4.4,0,0,0,.113-.021.5.5,0,0,0,.089-.031.861.861,0,0,0,.086-.054.732.732,0,0,0,.11-.086c.02-.018.037-.025.057-.045A139.216,139.216,0,0,0-665.126,672.8Z" transform="translate(989.204 -520.542)" fill="#06c"/>
    <path id="Trazado_11233" data-name="Trazado 11233" d="M-697.266,670.831c.27-.394-.048-.647-.372-.3a139.245,139.245,0,0,0-10.4,12.791c-.016.023-.021.042-.034.063a.87.87,0,0,0-.068.124.812.812,0,0,0-.037.1.487.487,0,0,0-.015.093.443.443,0,0,0,0,.114.251.251,0,0,0,.012.04.3.3,0,0,0,.046.1.315.315,0,0,0,.049.044.266.266,0,0,0,.054.038.314.314,0,0,0,.108.023c.014,0,.027,0,.043,0a.408.408,0,0,0,.11-.027.56.56,0,0,0,.087-.035.886.886,0,0,0,.083-.058.818.818,0,0,0,.106-.093c.018-.019.035-.026.054-.048A139.029,139.029,0,0,0-697.266,670.831Z" transform="translate(986.261 -520.726)" fill="#06c"/>
    <path id="Trazado_11234" data-name="Trazado 11234" d="M-719.854,659.649c.378-.291.155-.63-.261-.4a139.2,139.2,0,0,0-13.851,8.934c-.023.016-.033.034-.052.05a.712.712,0,0,0-.1.1.692.692,0,0,0-.066.079.466.466,0,0,0-.044.083.454.454,0,0,0-.037.108c0,.014,0,.027,0,.042a.3.3,0,0,0,.013.109.3.3,0,0,0,.033.058.226.226,0,0,0,.039.052.3.3,0,0,0,.1.055c.014.005.025.012.039.016a.477.477,0,0,0,.114.009.464.464,0,0,0,.094-.008.7.7,0,0,0,.1-.028.824.824,0,0,0,.13-.056c.023-.012.042-.014.066-.028A138.928,138.928,0,0,0-719.854,659.649Z" transform="translate(983.821 -521.773)" fill="#06c"/>
    <path id="Trazado_11235" data-name="Trazado 11235" d="M-673.715,685.636c-5.349,3.47-14.5,10.168-12.766,13.961,2,4.361,13.285-4.4,17.391-7.771l-2.96-4.175A12.291,12.291,0,0,0-673.715,685.636Z" transform="translate(988.271 -519.298)" fill="#f49e40"/>
    <line id="Línea_1822" data-name="Línea 1822" x2="3.515" y2="4.575" transform="translate(313.938 168.112)" fill="none" stroke="#ffb45a" stroke-linecap="round" stroke-linejoin="round" stroke-width="0.312" opacity="0.5" style="mix-blend-mode: multiply;isolation: isolate"/>
    <line id="Línea_1823" data-name="Línea 1823" x2="3.515" y2="4.575" transform="translate(311.813 169.703)" fill="none" stroke="#ffb45a" stroke-linecap="round" stroke-linejoin="round" stroke-width="0.312" opacity="0.5" style="mix-blend-mode: multiply;isolation: isolate"/>
    <line id="Línea_1824" data-name="Línea 1824" x2="3.515" y2="4.575" transform="translate(309.477 171.26)" fill="none" stroke="#ffb45a" stroke-linecap="round" stroke-linejoin="round" stroke-width="0.312" opacity="0.5" style="mix-blend-mode: multiply;isolation: isolate"/>
    <line id="Línea_1825" data-name="Línea 1825" x2="3.515" y2="4.575" transform="translate(307.383 172.958)" fill="none" stroke="#ffb45a" stroke-linecap="round" stroke-linejoin="round" stroke-width="0.312" opacity="0.5" style="mix-blend-mode: multiply;isolation: isolate"/>
    <line id="Línea_1826" data-name="Línea 1826" x2="3.515" y2="4.575" transform="translate(305.017 174.758)" fill="none" stroke="#ffb45a" stroke-linecap="round" stroke-linejoin="round" stroke-width="0.312" opacity="0.5" style="mix-blend-mode: multiply;isolation: isolate"/>
    <line id="Línea_1827" data-name="Línea 1827" x2="2.713" y2="3.532" transform="translate(303.123 176.947)" fill="none" stroke="#ffb45a" stroke-linecap="round" stroke-linejoin="round" stroke-width="0.312" opacity="0.5" style="mix-blend-mode: multiply;isolation: isolate"/>
    <path id="Trazado_11236" data-name="Trazado 11236" d="M-714.462,682.041c-2.861-4.79-12.815-10.2-16.2-11.609s-11.533-1.67-27.687,6.877c2.411,5.862,6.025,14.37,8.776,21.932C-746.94,698.208-712.7,685-714.462,682.041Z" transform="translate(981.57 -520.79)" fill="#eaeaea"/>
    <path id="Trazado_11237" data-name="Trazado 11237" d="M-725.062,682.271s5.612-4.178,8.419-.436-4.21,7.3-4.21,7.3S-723.815,683.976-725.062,682.271Z" transform="translate(984.683 -519.799)" fill="#1f7be8"/>
    <path id="Trazado_11238" data-name="Trazado 11238" d="M-674.865,685.969s5.159-5.063,7.7-2.61S-670.2,692.1-670.2,692.1Z" transform="translate(989.378 -519.574)" fill="#ffb45a"/>
    <path id="Trazado_11239" data-name="Trazado 11239" d="M-660.774,672.7s-6.486,5.986-4.033,8.522,7.337-3.023,7.337-3.023a19.019,19.019,0,0,0-1.387-2.871A31.967,31.967,0,0,0-660.774,672.7Z" transform="translate(990.267 -520.508)" fill="#ffb45a"/>
    <path id="Trazado_11240" data-name="Trazado 11240" d="M-716.556,659.174s8.845,1.9,19.355,10.383c-2.536,2.864-9.192,10.563-9.192,10.563a190.237,190.237,0,0,0-21.8-12.886C-724.622,664.864-716.556,659.174-716.556,659.174Z" transform="translate(984.389 -521.773)" fill="#eaeaea"/>
    <path id="Trazado_11241" data-name="Trazado 11241" d="M-714.914,686.647c-.305-.48-.661-.284-.418.23,2.711,5.729,6.077,11.863,9.367,17.3.017.028.035.043.051.068a1.131,1.131,0,0,0,.1.132.92.92,0,0,0,.082.088.648.648,0,0,0,.087.065.544.544,0,0,0,.113.06.346.346,0,0,0,.045.009.274.274,0,0,0,.115,0,.23.23,0,0,0,.06-.027.223.223,0,0,0,.055-.036.269.269,0,0,0,.058-.1c.005-.014.012-.026.016-.042a.525.525,0,0,0,.009-.128.626.626,0,0,0-.007-.108,1.022,1.022,0,0,0-.031-.116,1.219,1.219,0,0,0-.058-.157c-.012-.027-.015-.05-.029-.08C-708.132,698.121-711.519,692-714.914,686.647Z" transform="translate(985.585 -519.229)" fill="#1f7be8"/>
    <path id="Trazado_11242" data-name="Trazado 11242" d="M-750.788,700.059c-.231-.519-.612-.377-.446.167,1.843,6.063,4.275,12.623,6.735,18.48.013.031.028.047.042.074a1.139,1.139,0,0,0,.081.146c.023.035.045.07.068.1a.729.729,0,0,0,.078.077.5.5,0,0,0,.1.075.249.249,0,0,0,.043.015.265.265,0,0,0,.113.021.247.247,0,0,0,.063-.017.251.251,0,0,0,.06-.028.271.271,0,0,0,.072-.09.337.337,0,0,0,.022-.039.491.491,0,0,0,.027-.125.557.557,0,0,0,.009-.108.8.8,0,0,0-.013-.119.959.959,0,0,0-.034-.163c-.008-.03-.008-.052-.017-.084C-745.758,712.4-748.213,705.849-750.788,700.059Z" transform="translate(982.231 -517.979)" fill="#1f7be8"/>
    <rect id="Rectángulo_5546" data-name="Rectángulo 5546" width="1.682" height="6.729" rx="0.769" transform="translate(199.621 197.83) rotate(-113.894)" fill="#eaeaea"/>
    <path id="Trazado_11243" data-name="Trazado 11243" d="M-759.529,677.968s6.762,18.176,8.453,22.12c-7.8,3.287-30.547,13.281-30.547,13.281s-.259-11.075,1.149-17.18S-779.137,685.952-759.529,677.968Z" transform="translate(979.39 -520.015)" fill="#eaeaea"/>
    <line id="Línea_1828" data-name="Línea 1828" x1="2.483" y2="2.542" transform="translate(327.227 154.115)" fill="none" stroke="#ffb45a" stroke-linecap="round" stroke-linejoin="round" stroke-width="0.312" opacity="0.5" style="mix-blend-mode: multiply;isolation: isolate"/>
    <line id="Línea_1829" data-name="Línea 1829" x1="2.483" y2="2.542" transform="translate(327.282 155.805)" fill="none" stroke="#ffb45a" stroke-linecap="round" stroke-linejoin="round" stroke-width="0.312" opacity="0.5" style="mix-blend-mode: multiply;isolation: isolate"/>
    <line id="Línea_1830" data-name="Línea 1830" x1="2.483" y2="2.542" transform="translate(327.171 157.496)" fill="none" stroke="#ffb45a" stroke-linecap="round" stroke-linejoin="round" stroke-width="0.312" opacity="0.5" style="mix-blend-mode: multiply;isolation: isolate"/>
    <line id="Línea_1831" data-name="Línea 1831" x1="2.261" y2="2.741" transform="translate(319.028 164.212)" fill="none" stroke="#ffb45a" stroke-linecap="round" stroke-linejoin="round" stroke-width="0.312" opacity="0.5" style="mix-blend-mode: multiply;isolation: isolate"/>
    <line id="Línea_1832" data-name="Línea 1832" x1="2.261" y2="2.741" transform="translate(319.225 165.892)" fill="none" stroke="#ffb45a" stroke-linecap="round" stroke-linejoin="round" stroke-width="0.312" opacity="0.5" style="mix-blend-mode: multiply;isolation: isolate"/>
    <line id="Línea_1833" data-name="Línea 1833" x1="2.261" y2="2.741" transform="translate(319.256 167.586)" fill="none" stroke="#ffb45a" stroke-linecap="round" stroke-linejoin="round" stroke-width="0.312" opacity="0.5" style="mix-blend-mode: multiply;isolation: isolate"/>
    <path id="Trazado_11244" data-name="Trazado 11244" d="M-668.22,696.066a22.868,22.868,0,0,0,2.414-2.28c4-4.59,10.5-11.383,9.332-14.264,0,0,2.382-.325,2.352,1.727-.038,2.626-5.869,11.722-12.221,17.655Z" transform="translate(990 -519.872)" fill="#06c"/>
    <path id="Trazado_11245" data-name="Trazado 11245" d="M-664.716,697.487c-2.172,1.977-19.571,13.147-19.571,13.147l-1.32-2.705s12.847-8.088,19.013-13.279Z" transform="translate(988.373 -518.455)" fill="#005fad"/>
    <path id="Trazado_11246" data-name="Trazado 11246" d="M-698.567,701.13c-12.686,4.971-12.735,22.07-1.22,26.506,8.66,3.336,19-1.824,20.348-11.5C-678.085,706.375-689.387,697.533-698.567,701.13Z" transform="translate(986.255 -517.925)" fill="#5c6e94"/>
    <path id="Trazado_11247" data-name="Trazado 11247" d="M-697.532,704.835c-8.889,3.483-8.923,15.465-.855,18.574,6.068,2.338,13.317-1.278,14.258-8.057C-683.179,708.51-691.1,702.315-697.532,704.835Z" transform="translate(986.623 -517.556)" fill="#6e83b1"/>
    <path id="Trazado_11248" data-name="Trazado 11248" d="M-697.223,705.939c-7.759,3.04-7.788,13.5-.747,16.211,5.3,2.04,11.622-1.116,12.443-7.033C-684.7,709.146-691.61,703.739-697.223,705.939Z" transform="translate(986.733 -517.446)" fill="#eaeaea"/>
    <path id="Trazado_11249" data-name="Trazado 11249" d="M-685.528,714.55a7.266,7.266,0,0,0-.2-2.888,9.237,9.237,0,0,1-12.127,5.658,7.929,7.929,0,0,1-4.959-5.826,8.268,8.268,0,0,0,4.845,10.089C-692.675,723.622-686.349,720.466-685.528,714.55Z" transform="translate(986.734 -516.879)" fill="#eaeaea"/>
    <path id="Trazado_11250" data-name="Trazado 11250" d="M-694.457,712.507c-.585-.211.875-4.7,1.345-5.438s2.607.151,2.416.954S-693.62,712.811-694.457,712.507Z" transform="translate(987.533 -517.319)" fill="#eaeaea" style="mix-blend-mode: multiply;isolation: isolate"/>
    <path id="Trazado_11251" data-name="Trazado 11251" d="M-695.315,715.035c.586.212-.874,4.7-1.345,5.439s-2.606-.151-2.415-.955S-696.152,714.733-695.315,715.035Z" transform="translate(987.112 -516.549)" fill="#eaeaea" style="mix-blend-mode: multiply;isolation: isolate"/>
    <path id="Trazado_11252" data-name="Trazado 11252" d="M-693.572,713.122c-.265-.564,3.941-2.7,4.8-2.895s1.737,1.95,1.033,2.383S-693.195,713.929-693.572,713.122Z" transform="translate(987.627 -516.999)" fill="#eaeaea" style="mix-blend-mode: multiply;isolation: isolate"/>
    <path id="Trazado_11253" data-name="Trazado 11253" d="M-696.013,714.207c.265.565-3.941,2.705-4.8,2.9s-1.737-1.95-1.033-2.383S-696.39,713.4-696.013,714.207Z" transform="translate(986.831 -516.656)" fill="#eaeaea" style="mix-blend-mode: multiply;isolation: isolate"/>
    <path id="Trazado_11254" data-name="Trazado 11254" d="M-693.544,714.123c.212-.586,4.7.874,5.439,1.345s-.152,2.606-.955,2.415S-693.847,714.96-693.544,714.123Z" transform="translate(987.63 -516.646)" fill="#eaeaea" style="mix-blend-mode: multiply;isolation: isolate"/>
    <path id="Trazado_11255" data-name="Trazado 11255" d="M-696.072,713.265c-.212.586-4.7-.875-5.439-1.345s.152-2.606.955-2.414S-695.769,712.427-696.072,713.265Z" transform="translate(986.86 -517.066)" fill="#eaeaea" style="mix-blend-mode: multiply;isolation: isolate"/>
    <path id="Trazado_11256" data-name="Trazado 11256" d="M-694.372,715.007c.564-.265,2.7,3.941,2.895,4.8s-1.95,1.735-2.382,1.032S-695.178,715.385-694.372,715.007Z" transform="translate(987.523 -516.552)" fill="#eaeaea" style="mix-blend-mode: multiply;isolation: isolate"/>
    <path id="Trazado_11257" data-name="Trazado 11257" d="M-695.457,712.568c-.564.265-2.705-3.941-2.895-4.8s1.95-1.735,2.382-1.032S-694.651,712.189-695.457,712.568Z" transform="translate(987.18 -517.348)" fill="#eaeaea" style="mix-blend-mode: multiply;isolation: isolate"/>
    <path id="Trazado_11258" data-name="Trazado 11258" d="M-671.167,674.389a3.21,3.21,0,0,0-.577-1.411.967.967,0,0,0-1.538.015,1.5,1.5,0,0,0-.209,1.718,2.567,2.567,0,0,0,1.308.9Z" transform="translate(989.49 -520.517)" fill="#ffb45a"/>
    <path id="Trazado_11259" data-name="Trazado 11259" d="M-673.926,677.955a.168.168,0,0,1-.118-.038.166.166,0,0,1-.022-.234l4.463-5.346a.166.166,0,0,1,.233-.021.166.166,0,0,1,.022.234l-4.463,5.346A.164.164,0,0,1-673.926,677.955Z" transform="translate(989.449 -520.548)" fill="#06c"/>
    <path id="Trazado_11260" data-name="Trazado 11260" d="M-708.974,640.512s2.065,9.77-1.092,12.076c4.128.486,5.254,2.392,7.649,6.323-.85-5.959-.243-8.45,1.215-9.919C-706.15,649.082-707.807,643.271-708.974,640.512Z" transform="translate(986.086 -523.519)" fill="#e1edff"/>
    <path id="Trazado_11261" data-name="Trazado 11261" d="M-788.55,696.607s1.413,6.69-.749,8.269c2.828.333,3.6,1.638,5.239,4.329-.583-4.079-.166-5.786.831-6.792C-786.617,702.476-787.752,698.5-788.55,696.607Z" transform="translate(978.674 -518.272)" fill="#fff"/>
    <path id="Trazado_11262" data-name="Trazado 11262" d="M-684.4,679.874s.777,3.683-.412,4.552c1.556.183,1.98.9,2.884,2.383-.32-2.246-.092-3.184.458-3.739C-683.338,683.1-683.962,680.914-684.4,679.874Z" transform="translate(988.447 -519.837)" fill="#e1edff"/>
    <path id="Trazado_11263" data-name="Trazado 11263" d="M-721.647,685.774s.514,2.432-.272,3.006c1.028.121,1.308.595,1.9,1.574-.212-1.483-.061-2.1.3-2.469C-720.944,687.907-721.356,686.461-721.647,685.774Z" transform="translate(984.977 -519.285)" fill="#e1edff"/>
    <path id="Trazado_11264" data-name="Trazado 11264" d="M-788.716,662.219c4.321,9.262,3.179,18.838-4.3,26.2-4.451,3.882-8.453,7.175-11.786,12.283-2.71,3.963-7.036,6.694-10.152,10.452l1.635,1.439s23.008-24.542,28.071-30.253c2.2-3.826.238-19.53-2.32-21.448a5.737,5.737,0,0,0-2.749-1.091A8.443,8.443,0,0,1-788.716,662.219Z" transform="translate(976.275 -521.715)" fill="#dedfe0"/>
    <path id="Trazado_11265" data-name="Trazado 11265" d="M-805.785,662.125c-1.287,1.443-1.922,3.012-3.21,4.456-.961,1.506-2.839,2.5-3.8,4.006-4.946,6.49-9.83,12.654-14.389,18.881a25.532,25.532,0,0,0-3.543,6.545l17.251,15.188c3.117-3.758,7.443-6.489,10.152-10.452,3.333-5.108,7.336-8.4,11.786-12.283,7.475-7.361,8.617-16.937,4.3-26.2a8.443,8.443,0,0,0-1.6-2.419,45.575,45.575,0,0,0-13.767-.087A13.176,13.176,0,0,0-805.785,662.125Zm15.034,5.822a1.358,1.358,0,0,1-1.532,1.159,1.359,1.359,0,0,1-1.159-1.532,1.359,1.359,0,0,1,1.532-1.159A1.358,1.358,0,0,1-790.75,667.947Z" transform="translate(974.799 -521.763)" fill="#eaeaea"/>
    <path id="Trazado_11266" data-name="Trazado 11266" d="M-812.5,670.546c.961-1.506,2.839-2.5,3.8-4.006,1.287-1.445,1.922-3.013,3.21-4.456a13.176,13.176,0,0,1,3.179-2.364,12.328,12.328,0,0,0-5.053,1.592c-5.024,5.747-26.455,31.677-26.455,31.677l3.388,2.983a25.532,25.532,0,0,1,3.543-6.545C-822.334,683.2-817.45,677.036-812.5,670.546Z" transform="translate(974.509 -521.722)" fill="#f7f7f7"/>
    <path id="Trazado_11267" data-name="Trazado 11267" d="M-794.983,666.4s-7.8,19.261,56.508,36.453c23.648,6.322,27.889,24.291,37.431,26.34" transform="translate(978.114 -521.097)" fill="none" stroke="#ffb45a" stroke-miterlimit="10" stroke-width="0.26"/>
    <path id="Trazado_11268" data-name="Trazado 11268" d="M-831.865,754.623c6.732,17.544,14.744,29.921,25.425,27.509,3.933-.889,5.771-6.224,5.8-13.218h0c0-.144,0-.288,0-.433.01-1.613.137-7.344,1.419-9.921,1.5-3.014,4.786-5.309,1.938-10.407s-6.97-1.146-10.666-7.994h0q-.269-.564-.542-1.12c-2.747-6.344.461-11.636-5.63-17.059-4.545-4.046-13.191-4.695-17.28-3.155C-839.515,721.88-838.414,737.555-831.865,754.623Z" transform="translate(974.199 -516.265)" fill="#e1edff"/>
    <path id="Trazado_11269" data-name="Trazado 11269" d="M-831.865,754.623c6.732,17.544,14.744,29.921,25.425,27.509,3.933-.889,5.771-6.224,5.8-13.218h0c0-.144,0-.288,0-.433.01-1.613.137-7.344,1.419-9.921,1.5-3.014,4.786-5.309,1.938-10.407s-6.97-1.146-10.666-7.994h0q-.269-.564-.542-1.12c-2.747-6.344.461-11.636-5.63-17.059-4.545-4.046-13.191-4.695-17.28-3.155C-839.515,721.88-838.414,737.555-831.865,754.623Z" transform="translate(974.199 -516.265)" fill="#e1edff" style="mix-blend-mode: multiply;isolation: isolate"/>
    <path id="Trazado_11270" data-name="Trazado 11270" d="M-736.139,758.365c0-1.464-31.053-180.01-31.053-180.01,0-.1.008-.191.008-.288a13.74,13.74,0,0,0-13.739-13.74,13.8,13.8,0,0,0-2.92.314h0L-867.3,582.663l-.2.041h0a13.742,13.742,0,0,0-10.874,13.439,13.773,13.773,0,0,0,.369,3.157h0l0,.018c.02.086.037.174.06.26l42.362,184.652A13.741,13.741,0,0,0-822.065,795.5a13.7,13.7,0,0,0,4.274-.681l71.719-23.25A13.742,13.742,0,0,0-736.139,758.365Z" transform="translate(970.342 -530.645)" fill="none"/>
    <path id="Trazado_11271" data-name="Trazado 11271" d="M-784.519,724.454c-3.631,1.458-7.892,3.049-12.735,4.676-12.43,4.175-22.435,1.8-29.8,2.289-.22,1.775.446,6.72.708,8.553,10.008-3.274,18.83-4.516,28.828-8.127A55.193,55.193,0,0,0-784.519,724.454Z" transform="translate(975.138 -515.667)" fill="#f4a2a2"/>
    <path id="Trazado_11272" data-name="Trazado 11272" d="M-695.153,720.148c-1.065-.781-5.04.945-8.235,2.389s-14.58,4.852-23.3,5.136-21.074-2.178-24.552-5.136c3.479-4.306,7.518-7.5,11.218-12.045,2.689-3.3,5.27-5.6,2.8-8.1-2.983-3.016-8.549.712-16.572,5.894s-14.555,10.437-16.969,11.928a109.531,109.531,0,0,1-13.818,6.4,55.2,55.2,0,0,1-13,7.39c-10,3.611-18.82,4.853-28.828,8.127,2.2,10.668,7.113,21.4,10.608,24.8,11.669-6.286,27.509-14,33.036-16.647,6.6-3.162,14.909-3.162,26.411-1.672,0,0,10.791,1.917,20.943.284s17.111-4.473,19.241-6.745a13.4,13.4,0,0,0,2.84-4.4s4.046-1.136,4.615-1.633,5.467-5.538,5.467-5.538,4.686-2.557,6.532-4.97S-694.088,720.929-695.153,720.148Z" transform="translate(975.202 -517.831)" fill="#ef9595"/>
    <path id="Trazado_11273" data-name="Trazado 11273" d="M-759.241,723.341c-.612.958-2.322,2.273-1.546,1.984,3.966-.85,9.073-1.386,13.039.031a32.648,32.648,0,0,0,25.787-1,63.812,63.812,0,0,1-10.848,1.473c-8.351.271-20.03-1.976-24.059-4.765A20.614,20.614,0,0,0-759.241,723.341Z" transform="translate(981.322 -515.984)" fill="#e58181"/>
    <path id="Trazado_11274" data-name="Trazado 11274" d="M-820.533,757.32a18.065,18.065,0,0,0,4.184,6c11.6-6.3,27.477-13.984,33.036-16.647,6.6-3.162,14.909-3.162,26.411-1.672a75.618,75.618,0,0,0,16.9.758c-.484-.014-.971-.038-1.46-.078-11.331-1.133-22.095-3.965-33.71-5.381-10.764-1.417-20.112,1.983-29.177,7.365-5.428,3.285-10.959,6.572-16.185,9.656" transform="translate(975.752 -514.215)" fill="#e58181" opacity="0.5"/>
    <path id="Trazado_11275" data-name="Trazado 11275" d="M-745.02,706.848a3.08,3.08,0,0,0,.12-4.459c-.853-.729-3.278-.668-4.972.874,0,0-3.959,3.745-1.187,5.592C-748.645,710.463-746.2,708.078-745.02,706.848Z" transform="translate(982.159 -517.773)" fill="#e58181"/>
    <path id="Trazado_11276" data-name="Trazado 11276" d="M-705.4,719.076c.324,1.051-.474,2.918-1.972,4.877a17.006,17.006,0,0,1-3.718,3.227s-1.926-2.13-1.181-3.014C-707.988,719.076-705.4,719.076-705.4,719.076Z" transform="translate(985.863 -516.17)" fill="#e58181"/>
    <path id="Trazado_11277" data-name="Trazado 11277" d="M-757.257,720.722a34.794,34.794,0,0,1-4.836,5.082c3.13-.585,6.259-4.142,6.259-4.142A8.577,8.577,0,0,1-757.257,720.722Z" transform="translate(981.219 -516.016)" fill="#e58181"/>
    <path id="Trazado_11278" data-name="Trazado 11278" d="M-721.065,734.638s-14.586,4.374-22.629,5.329" transform="translate(982.94 -514.714)" fill="none" stroke="#e58181" stroke-miterlimit="10" stroke-width="0.222"/>
    <path id="Trazado_11279" data-name="Trazado 11279" d="M-711.243,728.081a41.309,41.309,0,0,1-13.915,4.188c-7.562.746-15.761,1.171-15.761,1.171" transform="translate(983.199 -515.328)" fill="none" stroke="#e58181" stroke-miterlimit="10" stroke-width="0.222"/>
    <path id="Trazado_11280" data-name="Trazado 11280" d="M-760.408,711.093s1.306,3.219,4.206,3.994" transform="translate(981.376 -516.917)" fill="none" stroke="#e58181" stroke-miterlimit="10" stroke-width="0.222"/>
    <path id="Trazado_11281" data-name="Trazado 11281" d="M-762.331,712.919s1.306,3.219,4.206,3.994" transform="translate(981.196 -516.746)" fill="none" stroke="#e58181" stroke-miterlimit="10" stroke-width="0.222"/>
    <path id="Trazado_11282" data-name="Trazado 11282" d="M-812.334,684.308a7.378,7.378,0,0,0-.937,1.007,1.553,1.553,0,0,0-.362,1.054,1.435,1.435,0,0,0,.659,1.089,2.1,2.1,0,0,0,1.513.428c.709-.092,1.114-.371,2.076-1.225a8.281,8.281,0,0,0,1.168-1.277,1.807,1.807,0,0,0-.061-2.141l-.942-1.768a3.069,3.069,0,0,1,.169-3.662,9.745,9.745,0,0,1,1.431-1.592,6.846,6.846,0,0,1,3.578-1.987,4.259,4.259,0,0,1,2.771.465l1.828-1.674,2.1,1.529-1.915,1.746a3.764,3.764,0,0,1,.788,1.792,3.439,3.439,0,0,1-.766,2.348,11.561,11.561,0,0,1-1.313,1.476l-2.339-1.7a6.293,6.293,0,0,0,.969-1.051,1.554,1.554,0,0,0,.385-1.038,1.192,1.192,0,0,0-.553-.911,1.687,1.687,0,0,0-1.326-.359,3.558,3.558,0,0,0-1.865,1.074,7.03,7.03,0,0,0-.883.979,1.591,1.591,0,0,0-.057,1.885l.824,1.513c.992,1.838.984,2.914.067,4.172a13.248,13.248,0,0,1-1.733,1.914c-1.657,1.53-2.61,2.05-3.778,2.214a4.306,4.306,0,0,1-2.936-.655l-2.233,2.09-2.1-1.529,2.287-2.117a3.352,3.352,0,0,1-.883-1.9,3.378,3.378,0,0,1,.693-2.434,11.348,11.348,0,0,1,1.335-1.46Z" transform="translate(975.979 -520.478)" fill="#ffb45a"/>
    <path id="Trazado_11283" data-name="Trazado 11283" d="M-706.4,710.242a8.581,8.581,0,0,0-.522,4.429" transform="translate(986.374 -516.996)" fill="none" stroke="#fff" stroke-linecap="round" stroke-miterlimit="10" stroke-width="0.13"/>
    <circle id="Elipse_1540" data-name="Elipse 1540" cx="0.315" cy="0.315" r="0.315" transform="translate(280.137 191.864)" fill="#fff"/>
    <circle id="Elipse_1541" data-name="Elipse 1541" cx="0.315" cy="0.315" r="0.315" transform="translate(281.207 189.611)" fill="#fff"/>
    <line id="Línea_1834" data-name="Línea 1834" y1="3.508" x2="2.752" transform="translate(323.273 152)" fill="none" stroke="#fff" stroke-linecap="round" stroke-miterlimit="10" stroke-width="0.13"/>
    <circle id="Elipse_1542" data-name="Elipse 1542" cx="0.247" cy="0.247" r="0.247" transform="translate(322.528 155.817)" fill="#fff"/>
    <circle id="Elipse_1543" data-name="Elipse 1543" cx="0.247" cy="0.247" r="0.247" transform="translate(321.873 156.644)" fill="#fff"/>
    <line id="Línea_1835" data-name="Línea 1835" x2="2.109" y2="3.929" transform="translate(270.285 170.906)" fill="none" stroke="#fff" stroke-linecap="round" stroke-miterlimit="10" stroke-width="0.13"/>
    <circle id="Elipse_1544" data-name="Elipse 1544" cx="0.247" cy="0.247" r="0.247" transform="translate(269.73 169.98)" fill="#fff"/>
    <circle id="Elipse_1545" data-name="Elipse 1545" cx="0.247" cy="0.247" r="0.247" transform="translate(269.236 169.048)" fill="#fff"/>
    <line id="Línea_1836" data-name="Línea 1836" y1="2.674" x2="3.568" transform="translate(260.416 141.594)" fill="none" stroke="#fff" stroke-linecap="round" stroke-miterlimit="10" stroke-width="0.13"/>
    <circle id="Elipse_1546" data-name="Elipse 1546" cx="0.247" cy="0.247" r="0.247" transform="translate(259.544 144.428)" fill="#fff"/>
    <circle id="Elipse_1547" data-name="Elipse 1547" cx="0.247" cy="0.247" r="0.247" transform="translate(258.696 145.056)" fill="#fff"/>
    <path id="Trazado_11284" data-name="Trazado 11284" d="M-708.525,683.4a14.27,14.27,0,0,0,3.984.621" transform="translate(986.23 -519.508)" fill="none" stroke="#fff" stroke-linecap="round" stroke-miterlimit="10" stroke-width="0.13"/>
    <circle id="Elipse_1548" data-name="Elipse 1548" cx="0.323" cy="0.323" r="0.323" transform="translate(282.323 164.241)" fill="#fff"/>
    <circle id="Elipse_1549" data-name="Elipse 1549" cx="0.323" cy="0.323" r="0.323" transform="translate(284.209 164.241)" fill="#fff"/>
    <path id="Trazado_11285" data-name="Trazado 11285" d="M-791.524,616.22c3.921-.653,6.6-1.074,6.989-1.072,1.744.007,8.863-1.334,8.863-1.334,3.679-.575,7.611-3.753,8.652-2.353a1.682,1.682,0,0,1-.063,2.362l2.152-1.307s8.939-6.836,9.765-5.41c2.138,2.183-.18,4.643-.18,4.643s9.205-6.431,9.493-4.417-2.116,5.574-5.942,9.262c-3.029,2.92-9.141,6.732-11.2,7.979C-773.526,627.512-782.5,621.9-791.524,616.22Z" transform="translate(978.466 -526.662)" fill="#e58181"/>
    <path id="Trazado_11286" data-name="Trazado 11286" d="M-749.367,608.368c-.819,2.445-2.12,4.244-4.612,6.847,0,0-1.225-.951-.794-1.752S-750.589,607.778-749.367,608.368Z" transform="translate(981.895 -526.53)" fill="#e07070"/>
    <path id="Trazado_11287" data-name="Trazado 11287" d="M-808.993,621.09l8.536,6.537-1.826.426S-808.026,623.262-808.993,621.09Z" transform="translate(976.832 -525.336)" fill="#e58181"/>
    <path id="Trazado_11288" data-name="Trazado 11288" d="M-757.35,611.037a116.57,116.57,0,0,1-9.878,6.3c-1.56.895-3.144,1.75-4.757,2.547-.445.22-.055.887.39.667a110.482,110.482,0,0,0,13.647-8.16c.33-.227.661-.456.987-.69.4-.288.015-.957-.39-.667Z" transform="translate(980.275 -526.283)" fill="#e07070"/>
    <path id="Trazado_11289" data-name="Trazado 11289" d="M-768.4,612.933a21.747,21.747,0,0,1-3.441,2.027,13.791,13.791,0,0,1-7.331,1.643c-.493-.051-.49.721,0,.772a14.371,14.371,0,0,0,7.5-1.643,21.85,21.85,0,0,0,3.659-2.133c.4-.292.011-.962-.389-.666Z" transform="translate(979.587 -526.106)" fill="#e07070"/>
    <path id="Trazado_11290" data-name="Trazado 11290" d="M-742.433,624.539c-.687-2.794-15.35-.76-15.35-.76s-19.5-2.677-28.531-8.355c-10.393,1.732-29.529,5.1-38.01,6.6-2.1-3.308-3.567-5.878-3.567-5.878l-19.337,7.255a67.767,67.767,0,0,0,1.456,9.562,203.2,203.2,0,0,0,7.355,20.267,29.9,29.9,0,0,0,2.1,4.233,11.922,11.922,0,0,1,.87,1.349c5.134-6.264,15.224-18.294,20.191-22.293l.012.01c1.4-1.041,6.832-4.931,11.912-6.548a56.494,56.494,0,0,1,6.449-1.826s.055.049.156.136a35.738,35.738,0,0,0,11.654,6.327c7.211,2.311,7.689,3.734,20-.107,6.323-1.974,10.734-3.359,13.533-4.241,2.65-.834,3.856-1.218,3.856-1.218a15.763,15.763,0,0,0,2.873-1.2C-743.409,627.07-742.088,625.939-742.433,624.539Z" transform="translate(973.255 -525.866)" fill="#ef9595"/>
    <path id="Trazado_11291" data-name="Trazado 11291" d="M-827.8,641.712a40.194,40.194,0,0,0-10.6,12.729,22.071,22.071,0,0,0,1.263,1.991,11.922,11.922,0,0,1,.87,1.349c5.134-6.264,15.224-18.294,20.191-22.293l.012.01c1.4-1.041,6.832-4.931,11.912-6.548,2.794-.889,4.463-1.352,5.4-1.589C-809.319,623.034-819.783,635.515-827.8,641.712Z" transform="translate(974.081 -524.832)" fill="#e58181" opacity="0.5"/>
    <path id="Trazado_11292" data-name="Trazado 11292" d="M-765.776,622.847s1.539.839,1.482,1.455-.33,2.424-4.305,2.845-9.926-1.9-9.926-1.9Z" transform="translate(979.682 -525.171)" fill="#e58181" opacity="0.5"/>
    <path id="Trazado_11293" data-name="Trazado 11293" d="M-796.382,609.088a58.26,58.26,0,0,1,10.891,1.7c.927.461,1.862.951,2.834,1.459,4.377,2.284,7.515,5.437,13.966,7.315,5.888,1.638,8.547,4.058,8.377,6.181s-6.869,3.107-11.761,1.16-20-5.894-22.335-5.888c-1.326,0-19.818,1.271-35.5,2.361l-2.937-5.306c4.407.639,8.751-.875,12.917-2.656C-812.218,612.161-804.863,608.84-796.382,609.088Z" transform="translate(974.6 -526.459)" fill="#ef9595"/>
    <path id="Trazado_11294" data-name="Trazado 11294" d="M-799.532,607.281a30.718,30.718,0,0,1,14.042,3.67,58.26,58.26,0,0,0-10.891-1.7c-8.482-.248-15.837,3.073-23.548,6.321-4.166,1.781-8.51,3.295-12.917,2.656l-.015-.027C-821.685,614.443-807.087,607.063-799.532,607.281Z" transform="translate(974.599 -526.628)" fill="#ef9595"/>
    <path id="Trazado_11295" data-name="Trazado 11295" d="M-799.532,607.281a30.718,30.718,0,0,1,14.042,3.67,58.26,58.26,0,0,0-10.891-1.7c-8.482-.248-15.837,3.073-23.548,6.321-4.166,1.781-8.51,3.295-12.917,2.656l-.015-.027C-821.685,614.443-807.087,607.063-799.532,607.281Z" transform="translate(974.599 -526.628)" fill="#f4a2a2"/>
    <path id="Trazado_11296" data-name="Trazado 11296" d="M-765.617,624.541c-.156,1.951-5.829,2.94-10.544,1.576,0,0,.668-2.8.939-3.515s1.548-1,4.282-.443A16.508,16.508,0,0,1-765.617,624.541Z" transform="translate(979.903 -525.263)" fill="#e58181"/>
    <path id="Trazado_11297" data-name="Trazado 11297" d="M-798.289,620.012c3.474,1.135,13.452,3.793,13.452,3.793h0a11.607,11.607,0,0,1,1.612.29l4.668,1.424a59.5,59.5,0,0,1-8.023-.14c-.975-.2-2.135-.348-3.025-.444a8.127,8.127,0,0,1-1.418-.136C-793.144,624.315-797.135,621.824-798.289,620.012Z" transform="translate(977.833 -525.436)" fill="#e58181" opacity="0.3"/>
    <path id="Trazado_11298" data-name="Trazado 11298" d="M-781.586,632.967c8.28.39,15.72-3.292,23.789-3.687q.976-.053,1.936-.108c-2.8.881-7.21,2.267-13.533,4.241-12.308,3.843-12.786,2.418-20,.107a35.725,35.725,0,0,1-11.654-6.327A40.982,40.982,0,0,0-781.586,632.967Z" transform="translate(977.575 -524.765)" fill="#e58181" opacity="0.5"/>
    <path id="Trazado_11299" data-name="Trazado 11299" d="M-775.3,625.522a87.043,87.043,0,0,1-21.405-5.341c-.365-.15-.721-.3-1.108-.482-.446-.213-.838.452-.389.667a38.2,38.2,0,0,0,3.737,1.489,85.486,85.486,0,0,0,10.479,2.932c2.873.623,5.773,1.115,8.686,1.507.491.066.487-.706,0-.772Z" transform="translate(977.823 -525.47)" fill="#e58181"/>
    <path id="Trazado_11300" data-name="Trazado 11300" d="M-751.178,625.092a5.6,5.6,0,0,1-2.148,1.854,15.763,15.763,0,0,1-2.873,1.2s-.293-.444,1.549-1.255C-754.02,626.617-751.178,625.092-751.178,625.092Z" transform="translate(981.769 -524.961)" fill="#e58181"/>
    <path id="Trazado_11301" data-name="Trazado 11301" d="M-833.452,607.6a7.577,7.577,0,0,0-9.3-.712c-5.321,3.245-7.816,17.273,1.165,39.722s14.282,25.244,17.793,24.442c3.7-.844,3.451-6.866,3.451-6.866" transform="translate(973.225 -526.784)" fill="none" stroke="#fff" stroke-miterlimit="10" stroke-width="0.191"/>
    <path id="Trazado_11302" data-name="Trazado 11302" d="M-845.625,603.063c-6.374,3.886-9.362,20.689,1.394,47.58,4.034,10.085,7.448,16.857,10.361,21.334" transform="translate(972.868 -527.022)" fill="none" stroke="#fff" stroke-miterlimit="10" stroke-width="0.191"/>
    <circle id="Elipse_1550" data-name="Elipse 1550" cx="0.563" cy="0.563" r="0.563" transform="translate(128.825 74.293)" fill="#fff"/>
    <circle id="Elipse_1551" data-name="Elipse 1551" cx="0.563" cy="0.563" r="0.563" transform="translate(139.891 146.294)" fill="#fff"/>
    <circle id="Elipse_1552" data-name="Elipse 1552" cx="0.563" cy="0.563" r="0.563" transform="translate(142.406 148.477)" fill="#fff"/>
    <path id="Trazado_11303" data-name="Trazado 11303" d="M-823.8,725.425a1.871,1.871,0,0,0-.979.031c-3.874,1.214-3,10.585,1.216,24.15,4.67,15.045,11.2,18.865,14.042,17.783a3.009,3.009,0,0,0,1.639-1.333" transform="translate(975.123 -515.581)" fill="none" stroke="#fff" stroke-miterlimit="10" stroke-width="0.191"/>
    <circle id="Elipse_1553" data-name="Elipse 1553" cx="0.692" cy="0.692" r="0.692" transform="translate(157.757 252.232)" fill="#fff"/>
    <circle id="Elipse_1554" data-name="Elipse 1554" cx="0.692" cy="0.692" r="0.692" transform="translate(161.472 254.109)" fill="#fff"/>
    <path id="Trazado_11304" data-name="Trazado 11304" d="M-819.484,725.458c-1.214-1.979-3.326-4.274-6.387-3.647-5.176,1.061-6.216,11.123-3.1,23.658a59.182,59.182,0,0,0,10.331,21.265" transform="translate(974.799 -515.924)" fill="none" stroke="#fff" stroke-miterlimit="10" stroke-width="0.191"/>
    <path id="Trazado_11305" data-name="Trazado 11305" d="M-637.8,744.533a2.3,2.3,0,0,0,1.528,1.155c4.008.652,7.422-8.121,9.738-22.133,2.57-15.541-1.558-21.885-4.58-22.19a3,3,0,0,0-2.062.456" transform="translate(992.846 -517.829)" fill="none" stroke="#fff" stroke-miterlimit="10" stroke-width="0.191"/>
    <circle id="Elipse_1555" data-name="Elipse 1555" cx="0.692" cy="0.692" r="0.692" transform="translate(367.936 185.051)" fill="#fff"/>
    <circle id="Elipse_1556" data-name="Elipse 1556" cx="0.692" cy="0.692" r="0.692" transform="translate(365.456 181.708)" fill="#fff"/>
    <path id="Trazado_11306" data-name="Trazado 11306" d="M-640.558,740.456s-1.07,7.618,4.033,8.99,10.542-7.156,13.373-19.759a59.2,59.2,0,0,0,.3-23.64" transform="translate(992.579 -517.389)" fill="none" stroke="#fff" stroke-miterlimit="10" stroke-width="0.191"/>
    <path id="Trazado_11307" data-name="Trazado 11307" d="M-617.272,629.867a5.569,5.569,0,0,0,5.728,3.769c4.575-.192,11.172-8.322,13.389-25.95s-.2-21.312-2.74-22.046c-2.677-.773-4.662,3.187-4.662,3.187" transform="translate(994.766 -528.661)" fill="none" stroke="#fff" stroke-miterlimit="10" stroke-width="0.191"/>
    <path id="Trazado_11308" data-name="Trazado 11308" d="M-788.833,649.962s-4.241,1.1-5.487-2.473c-1.143-3.273-.669-6.038.374-6.984.831-.755,4.864-1.087,3.991,5.482" transform="translate(978.142 -523.556)" fill="none" stroke="#fff" stroke-miterlimit="10" stroke-width="0.13"/>
    <ellipse id="Elipse_1557" data-name="Elipse 1557" cx="1.241" cy="2.411" rx="1.241" ry="2.411" transform="matrix(0.91, -0.415, 0.415, 0.91, 185.239, 119.42)" fill="#fff"/>
    <path id="Trazado_11309" data-name="Trazado 11309" d="M-608.634,660.679s-4.172-1.336-3.315-5.024c.784-3.376,2.664-5.46,4.05-5.7,1.106-.192,4.691,1.683.441,6.767" transform="translate(995.253 -522.637)" fill="none" stroke="#fff" stroke-miterlimit="10" stroke-width="0.13"/>
    <ellipse id="Elipse_1558" data-name="Elipse 1558" cx="2.411" cy="1.241" rx="2.411" ry="1.241" transform="matrix(0.136, -0.991, 0.991, 0.136, 386.258, 134.741)" fill="#fff"/>
    <path id="Trazado_11310" data-name="Trazado 11310" d="M-641.914,669.819a3.642,3.642,0,0,1,.82,3.3c-.721,3.391-2.56,5.511-3.942,5.778-1.1.214-4.722-1.593-.57-6.757" transform="translate(991.933 -520.778)" fill="none" stroke="#fff" stroke-miterlimit="10" stroke-width="0.13"/>
    <ellipse id="Elipse_1559" data-name="Elipse 1559" cx="2.411" cy="1.241" rx="2.411" ry="1.241" transform="translate(344.817 156.047) rotate(-68.508)" fill="#fff"/>
  </g>
</svg>
