<svg xmlns="http://www.w3.org/2000/svg" width="110.899" height="48.475" viewBox="0 0 110.899 48.475">
  <g id="Grupo_9652" data-name="Grupo 9652" transform="translate(-91 -2920)">
    <path id="Trazado_6977" data-name="Trazado 6977" d="M172.9,324.8c0,2.282-24.825,4.132-55.45,4.132S62,327.08,62,324.8s24.826-4.131,55.449-4.131S172.9,322.517,172.9,324.8Z" transform="translate(29 2639.545)" fill="#e4e8ed"/>
    <path id="Trazado_6984" data-name="Trazado 6984" d="M114.372,282.025l-2.01.525-.549-2.1-.967.253.548,2.1-2.182.571.253.968,2.182-.571.549,2.1.967-.253-.548-2.1,2.01-.525Z" transform="translate(29 2639.545)" fill="#5b8dcb"/>
    <path id="Trazado_6986" data-name="Trazado 6986" d="M147.566,292.575l-1.47,1.47-1.532-1.532-.707.707,1.532,1.532-1.595,1.594.707.707,1.595-1.594,1.532,1.531.707-.707-1.532-1.531,1.47-1.47Z" transform="translate(29 2639.545)" fill="#e65b7a"/>
    <rect id="Rectángulo_5231" data-name="Rectángulo 5231" width="1.22" height="1.447" transform="translate(147.508 2924.563)" fill="#3b5b7a"/>
    <rect id="Rectángulo_5232" data-name="Rectángulo 5232" width="1.22" height="1.449" transform="translate(160.539 2924.109)" fill="#e4e8ed"/>
    <rect id="Rectángulo_5233" data-name="Rectángulo 5233" width="1.22" height="1.448" transform="translate(124.936 2937.051)" fill="#e4e8ed"/>
    <rect id="Rectángulo_5234" data-name="Rectángulo 5234" width="1.22" height="1.448" transform="translate(131.135 2929.745)" fill="#e4e8ed"/>
    <path id="Trazado_6987" data-name="Trazado 6987" d="M157.476,320.152c12.311-.821,10.669-4.923,10.669-4.923s-.273-12.038-.82-13.406-7.113-1.641-7.113-1.641l-50.884,1.368,6.292-8.207-15.046,8.48-25.442,3.01-4.1,6.019.273,9.027,7.934.82,18.876.548h40.214Z" transform="translate(29 2639.545)" fill="#fff" stroke="#3b5b7a" stroke-linecap="round" stroke-linejoin="round" stroke-width="1"/>
    <circle id="Elipse_1482" data-name="Elipse 1482" cx="7.387" cy="7.387" r="7.387" transform="translate(110.162 2950.146)" stroke-width="1" stroke="#3b5b7a" stroke-linecap="round" stroke-linejoin="round" fill="#fff"/>
    <circle id="Elipse_1483" data-name="Elipse 1483" cx="7.387" cy="7.387" r="7.387" transform="translate(167.49 2953.59) rotate(-22.963)" stroke-width="1" stroke="#3b5b7a" stroke-linecap="round" stroke-linejoin="round" fill="#fff"/>
    <line id="Línea_1637" data-name="Línea 1637" x2="5.471" transform="translate(157.752 2943.83)" fill="none" stroke="#3b5b7a" stroke-linecap="round" stroke-linejoin="round" stroke-width="1"/>
    <path id="Trazado_6988" data-name="Trazado 6988" d="M94.02,317.987a5.471,5.471,0,1,1-5.471-5.471A5.47,5.47,0,0,1,94.02,317.987Z" transform="translate(29 2639.545)" fill="none" stroke="#3b5b7a" stroke-linecap="round" stroke-linejoin="round" stroke-width="1"/>
    <path id="Trazado_6989" data-name="Trazado 6989" d="M153.522,317.987a5.471,5.471,0,1,1-5.471-5.471A5.471,5.471,0,0,1,153.522,317.987Z" transform="translate(29 2639.545)" fill="none" stroke="#3b5b7a" stroke-linecap="round" stroke-linejoin="round" stroke-width="1"/>
    <path id="Trazado_6990" data-name="Trazado 6990" d="M163.725,300.57v5.472l3.762,2.735" transform="translate(29 2639.545)" fill="none" stroke="#3b5b7a" stroke-linecap="round" stroke-linejoin="round" stroke-width="1"/>
    <line id="Línea_1638" data-name="Línea 1638" y1="6.861" x2="13.019" transform="translate(100.029 2943.535)" fill="none" stroke="#3b5b7a" stroke-linecap="round" stroke-linejoin="round" stroke-width="1"/>
    <line id="Línea_1639" data-name="Línea 1639" x1="4.096" y1="2.877" transform="translate(123.775 2930.248)" fill="none" stroke="#f78d48" stroke-miterlimit="10" stroke-width="1"/>
    <line id="Línea_1640" data-name="Línea 1640" y1="3.914" x2="3.802" transform="translate(166.275 2925.578)" fill="none" stroke="#e4e8ed" stroke-miterlimit="10" stroke-width="1"/>
    <line id="Línea_1657" data-name="Línea 1657" y2="9.223" transform="translate(170.432 2940.531)" fill="none" stroke="#3b5b7a" stroke-linecap="round" stroke-linejoin="round" stroke-width="1"/>
    <line id="Línea_1658" data-name="Línea 1658" x1="10.464" y2="10.464" transform="translate(159.789 2949.932)" fill="none" stroke="#3b5b7a" stroke-linecap="round" stroke-linejoin="round" stroke-width="1"/>
  </g>
</svg>
