<svg xmlns="http://www.w3.org/2000/svg" width="106.668" height="59.447" viewBox="0 0 106.668 59.447">
  <g id="Grupo_9657" data-name="Grupo 9657" transform="translate(-1015.666 -2907)">
    <path id="Trazado_6979" data-name="Trazado 6979" d="M363.334,542.666c0,2.282-23.879,4.132-53.335,4.132s-53.333-1.85-53.333-4.132,23.879-4.131,53.333-4.131S363.334,540.385,363.334,542.666Z" transform="translate(759 2419.649)" fill="#e4e8ed"/>
    <path id="Trazado_6997" data-name="Trazado 6997" d="M318.725,488.921l-2.01.525-.549-2.1-.967.253.548,2.1-2.182.571.253.968,2.182-.571.549,2.1.967-.253-.548-2.1,2.01-.525Z" transform="translate(759 2419.649)" fill="#5b8dcb"/>
    <path id="Trazado_6998" data-name="Trazado 6998" d="M351.919,499.471l-1.47,1.47-1.532-1.532-.707.707,1.532,1.532-1.595,1.594.707.707,1.595-1.594,1.532,1.531.707-.707-1.532-1.531,1.47-1.47Z" transform="translate(759 2419.649)" fill="#e65b7a"/>
    <rect id="Rectángulo_5245" data-name="Rectángulo 5245" width="1.22" height="1.447" transform="translate(1081.859 2911.563)" fill="#3b5b7a"/>
    <rect id="Rectángulo_5246" data-name="Rectángulo 5246" width="1.22" height="1.449" transform="translate(1094.891 2911.109)" fill="#e4e8ed"/>
    <rect id="Rectángulo_5247" data-name="Rectángulo 5247" width="1.219" height="1.448" transform="translate(1065.488 2916.745)" fill="#e4e8ed"/>
    <line id="Línea_1648" data-name="Línea 1648" x1="4.096" y1="2.877" transform="translate(1058.129 2917.248)" fill="none" stroke="#f78d48" stroke-miterlimit="10" stroke-width="1"/>
    <line id="Línea_1649" data-name="Línea 1649" y1="3.914" x2="3.801" transform="translate(1100.629 2912.578)" fill="none" stroke="#e4e8ed" stroke-miterlimit="10" stroke-width="1"/>
    <path id="Trazado_7010" data-name="Trazado 7010" d="M289.79,536.284h36.721l21.613-1.1s7.94-.662,9.153-6.4v-3.97s-3.308-3.749-3.308-6.505v-2.647s-5.073-11.247-9.594-12.019l-7.609-1.324H315.042s-12.24,1.874-15,3.2-14.115,7.829-15.548,8.16-6.506,1.213-6.837,1.323-10.587,1.986-14.005,3.86-5.293,4.632-5.293,6.727V534.3l4.08,1.323,6.4.773Z" transform="translate(759 2419.649)" fill="#fff" stroke="#3b5b7a" stroke-linecap="round" stroke-linejoin="round" stroke-width="1"/>
    <line id="Línea_1672" data-name="Línea 1672" x2="50.5" transform="translate(1052.75 2935.149)" fill="#fff" stroke="#3b5b7a" stroke-linecap="round" stroke-linejoin="round" stroke-width="1"/>
    <line id="Línea_1673" data-name="Línea 1673" x2="5.75" transform="translate(1068 2938.149)" fill="#fff" stroke="#3b5b7a" stroke-linecap="round" stroke-linejoin="round" stroke-width="1"/>
    <line id="Línea_1674" data-name="Línea 1674" x2="6" transform="translate(1089 2938.149)" fill="#fff" stroke="#3b5b7a" stroke-linecap="round" stroke-linejoin="round" stroke-width="1"/>
    <g id="Grupo_9112" data-name="Grupo 9112" transform="translate(759 2419.649)">
      <circle id="Elipse_1491" data-name="Elipse 1491" cx="7.387" cy="7.387" r="7.387" transform="translate(273.141 529.279)" stroke-width="1" stroke="#3b5b7a" stroke-linecap="round" stroke-linejoin="round" fill="#fff"/>
      <path id="Trazado_7012" data-name="Trazado 7012" d="M286,536.666a5.471,5.471,0,1,1-5.471-5.472A5.471,5.471,0,0,1,286,536.666Z" fill="none" stroke="#3b5b7a" stroke-linecap="round" stroke-linejoin="round" stroke-width="1"/>
    </g>
    <g id="Grupo_9113" data-name="Grupo 9113" transform="translate(759 2419.649)">
      <circle id="Elipse_1492" data-name="Elipse 1492" cx="7.387" cy="7.387" r="7.387" transform="translate(330.475 527.946)" stroke-width="1" stroke="#3b5b7a" stroke-linecap="round" stroke-linejoin="round" fill="#fff"/>
      <path id="Trazado_7013" data-name="Trazado 7013" d="M343.332,535.333a5.471,5.471,0,1,1-5.471-5.472A5.471,5.471,0,0,1,343.332,535.333Z" fill="none" stroke="#3b5b7a" stroke-linecap="round" stroke-linejoin="round" stroke-width="1"/>
    </g>
    <line id="Línea_1675" data-name="Línea 1675" y1="8.534" transform="translate(1083.822 2926.133)" fill="none" stroke="#3b5b7a" stroke-linecap="round" stroke-linejoin="round" stroke-width="1"/>
    <line id="Línea_1676" data-name="Línea 1676" x1="4.267" y1="8.163" transform="translate(1099.594 2926.875)" fill="none" stroke="#3b5b7a" stroke-linecap="round" stroke-linejoin="round" stroke-width="1"/>
    <line id="Línea_1677" data-name="Línea 1677" y1="2.227" x2="3.525" transform="translate(1052.096 2932.626)" fill="none" stroke="#3b5b7a" stroke-linecap="round" stroke-linejoin="round" stroke-width="1"/>
    <line id="Línea_1678" data-name="Línea 1678" y1="3.334" x2="5.334" transform="translate(1099.666 2918.982)" fill="none" stroke="#3b5b7a" stroke-linecap="round" stroke-linejoin="round" stroke-width="1"/>
    <path id="Trazado_7017" data-name="Trazado 7017" d="M258.189,524.971l7.343-1.573,2.972-6.12" transform="translate(759 2419.649)" fill="#fff" stroke="#3b5b7a" stroke-linecap="round" stroke-linejoin="round" stroke-width="1"/>
  </g>
</svg>
