<svg xmlns="http://www.w3.org/2000/svg" width="106.667" height="49.055" viewBox="0 0 106.667 49.055">
  <g id="Grupo_9655" data-name="Grupo 9655" transform="translate(-711.332 -2919)">
    <path id="Trazado_6981" data-name="Trazado 6981" d="M360,430.666c0,2.282-23.878,4.132-53.334,4.132s-53.333-1.85-53.333-4.132,23.879-4.131,53.333-4.131S360,428.385,360,430.666Z" transform="translate(457.999 2533.257)" fill="#e4e8ed"/>
    <path id="Trazado_6991" data-name="Trazado 6991" d="M297.609,387.314l-2.01.525-.549-2.1-.967.253.548,2.1-2.182.571.253.968,2.182-.571.549,2.1.967-.253-.548-2.1,2.01-.525Z" transform="translate(457.999 2533.257)" fill="#5b8dcb"/>
    <rect id="Rectángulo_5241" data-name="Rectángulo 5241" width="1.221" height="1.447" transform="translate(759.743 2923.563)" fill="#3b5b7a"/>
    <rect id="Rectángulo_5242" data-name="Rectángulo 5242" width="1.221" height="1.449" transform="translate(772.774 2923.109)" fill="#e4e8ed"/>
    <rect id="Rectángulo_5243" data-name="Rectángulo 5243" width="1.22" height="1.448" transform="translate(743.37 2928.745)" fill="#e4e8ed"/>
    <line id="Línea_1643" data-name="Línea 1643" x1="4.096" y1="2.877" transform="translate(736.011 2929.248)" fill="none" stroke="#f78d48" stroke-miterlimit="10" stroke-width="1"/>
    <line id="Línea_1644" data-name="Línea 1644" y1="3.914" x2="3.802" transform="translate(778.511 2924.578)" fill="none" stroke="#e4e8ed" stroke-miterlimit="10" stroke-width="1"/>
    <path id="Trazado_7008" data-name="Trazado 7008" d="M264.938,408.156h16.246l17.645-10.643a15.939,15.939,0,0,1,4.481-.281c2.941.14,13.724,0,13.724,0l.981,1.681v7.842l37.111-.279,1.891,1.89v12.953l-1.3,1.3H343.643l-19.186,2.766h-61.2s-5.181-1.4-5.181-4.2v-6.3Z" transform="translate(457.999 2533.257)" fill="#fff" stroke="#3b5b7a" stroke-linecap="round" stroke-linejoin="round" stroke-width="1"/>
    <line id="Línea_1666" data-name="Línea 1666" x2="24.788" transform="translate(746.044 2941.553)" fill="#fff" stroke="#3b5b7a" stroke-linecap="round" stroke-linejoin="round" stroke-width="1"/>
    <line id="Línea_1667" data-name="Línea 1667" x2="4.761" transform="translate(758.089 2944.914)" fill="#fff" stroke="#3b5b7a" stroke-linecap="round" stroke-linejoin="round" stroke-width="1"/>
    <g id="Grupo_9111" data-name="Grupo 9111" transform="translate(457.999 2533.257)">
      <circle id="Elipse_1490" data-name="Elipse 1490" cx="7.387" cy="7.387" r="7.387" transform="translate(267.947 416.942)" stroke-width="1" stroke="#3b5b7a" stroke-linecap="round" stroke-linejoin="round" fill="#fff"/>
      <path id="Trazado_7011" data-name="Trazado 7011" d="M280.8,424.329a5.471,5.471,0,1,1-5.472-5.472A5.471,5.471,0,0,1,280.8,424.329Z" fill="none" stroke="#3b5b7a" stroke-linecap="round" stroke-linejoin="round" stroke-width="1"/>
    </g>
    <g id="Grupo_9114" data-name="Grupo 9114" transform="translate(457.999 2533.257)">
      <circle id="Elipse_1493" data-name="Elipse 1493" cx="7.387" cy="7.387" r="7.387" transform="translate(326.947 416.942)" stroke-width="1" stroke="#3b5b7a" stroke-linecap="round" stroke-linejoin="round" fill="#fff"/>
      <path id="Trazado_7014" data-name="Trazado 7014" d="M339.8,424.329a5.471,5.471,0,1,1-5.471-5.472A5.471,5.471,0,0,1,339.8,424.329Z" fill="none" stroke="#3b5b7a" stroke-linecap="round" stroke-linejoin="round" stroke-width="1"/>
    </g>
  </g>
</svg>
