<svg xmlns="http://www.w3.org/2000/svg" width="112.234" height="55.683" viewBox="0 0 112.234 55.683">
  <g id="Grupo_9666" data-name="Grupo 9666" transform="translate(-400.549 -2913)">
    <path id="Trazado_6976" data-name="Trazado 6976" d="M499.637,282.565l-1.741-1.134,1.182-1.815-.838-.546-1.182,1.815-1.89-1.23-.547.838,1.891,1.23-1.182,1.815.838.546,1.182-1.815,1.741,1.134Z" transform="translate(-22 2638.42)" fill="#e65b7a"/>
    <rect id="Rectángulo_5225" data-name="Rectángulo 5225" width="1.221" height="1.447" transform="translate(459.793 2920.104)" fill="#3b5b7a"/>
    <rect id="Rectángulo_5226" data-name="Rectángulo 5226" width="1.219" height="1.447" transform="translate(434.582 2928)" fill="#3b5b7a"/>
    <rect id="Rectángulo_5227" data-name="Rectángulo 5227" width="1.22" height="1.448" transform="translate(493.496 2922.437)" fill="#3b5b7a"/>
    <rect id="Rectángulo_5228" data-name="Rectángulo 5228" width="1.22" height="1.447" transform="translate(467.852 2918.713)" fill="#e4e8ed"/>
    <rect id="Rectángulo_5229" data-name="Rectángulo 5229" width="1.219" height="1.448" transform="translate(437.223 2932.592)" fill="#e4e8ed"/>
    <rect id="Rectángulo_5230" data-name="Rectángulo 5230" width="1.22" height="1.448" transform="translate(443.422 2925.286)" fill="#e4e8ed"/>
    <line id="Línea_1635" data-name="Línea 1635" x1="4.096" y1="2.877" transform="translate(436.061 2925.789)" fill="none" stroke="#e4e8ed" stroke-miterlimit="10" stroke-width="1"/>
    <line id="Línea_1636" data-name="Línea 1636" y1="4.096" x2="2.878" transform="translate(479.484 2921.119)" fill="none" stroke="#e4e8ed" stroke-miterlimit="10" stroke-width="1"/>
    <path id="Trazado_6983" data-name="Trazado 6983" d="M534.783,326.131c0,2.282-25.124,4.132-56.117,4.132s-56.117-1.85-56.117-4.132S447.675,322,478.666,322,534.783,323.85,534.783,326.131Z" transform="translate(-22 2638.42)" fill="#e4e8ed"/>
    <path id="Trazado_6985" data-name="Trazado 6985" d="M473.383,276.15l-2.01.525-.549-2.1-.967.253.548,2.1-2.182.571.253.968,2.182-.571.549,2.1.967-.253-.548-2.1,2.01-.525Z" transform="translate(-22 2638.42)" fill="#5b8dcb"/>
    <path id="Trazado_7002" data-name="Trazado 7002" d="M440.73,321.317l79.233-.454,9.7-1.818s2.121-1.818.758-6.515l-1.516-.757-.909-9.241s-6.364-12.255-9.848-13.315l-10.756-.757-30.6-.151-18.33,12.1-17.572,3.182a10.7,10.7,0,0,0-8.787,7.574v9.241Z" transform="translate(-22 2638.42)" fill="#fff" stroke="#3b5b7a" stroke-linecap="round" stroke-linejoin="round" stroke-width="1"/>
    <line id="Línea_1652" data-name="Línea 1652" y1="0.304" x2="54.842" transform="translate(442.666 2939.437)" fill="none" stroke="#3b5b7a" stroke-linecap="round" stroke-linejoin="round" stroke-width="1"/>
    <line id="Línea_1653" data-name="Línea 1653" x2="5.151" transform="translate(453.422 2942.467)" fill="none" stroke="#3b5b7a" stroke-linecap="round" stroke-linejoin="round" stroke-width="1"/>
    <line id="Línea_1654" data-name="Línea 1654" x2="5.455" y2="0.303" transform="translate(478.57 2942.315)" fill="none" stroke="#3b5b7a" stroke-linecap="round" stroke-linejoin="round" stroke-width="1"/>
    <circle id="Elipse_1486" data-name="Elipse 1486" cx="7.387" cy="7.387" r="7.387" transform="matrix(0.16, -0.987, 0.987, 0.16, 418.326, 2964.15)" stroke-width="1" stroke="#3b5b7a" stroke-linecap="round" stroke-linejoin="round" fill="#fff"/>
    <path id="Trazado_7003" data-name="Trazado 7003" d="M454.269,319.619a5.471,5.471,0,1,1-5.47-5.471A5.47,5.47,0,0,1,454.269,319.619Z" transform="translate(-22 2638.42)" fill="none" stroke="#3b5b7a" stroke-linecap="round" stroke-linejoin="round" stroke-width="1"/>
    <g id="Grupo_9109" data-name="Grupo 9109" transform="translate(-22 2638.42)">
      <circle id="Elipse_1487" data-name="Elipse 1487" cx="7.387" cy="7.387" r="7.387" transform="translate(503.201 312.209)" stroke-width="1" stroke="#3b5b7a" stroke-linecap="round" stroke-linejoin="round" fill="#fff"/>
      <path id="Trazado_7004" data-name="Trazado 7004" d="M515.935,319.619a5.471,5.471,0,1,1-5.47-5.471A5.47,5.47,0,0,1,515.935,319.619Z" fill="none" stroke="#3b5b7a" stroke-linecap="round" stroke-linejoin="round" stroke-width="1"/>
    </g>
    <line id="Línea_1655" data-name="Línea 1655" x1="3.507" y1="8.16" transform="translate(494.186 2930.75)" fill="none" stroke="#3b5b7a" stroke-linecap="round" stroke-linejoin="round" stroke-width="1"/>
    <line id="Línea_1660" data-name="Línea 1660" y1="2.947" x2="4.008" transform="translate(442.557 2936.515)" fill="none" stroke="#3b5b7a" stroke-linecap="round" stroke-linejoin="round" stroke-width="1"/>
    <line id="Línea_1661" data-name="Línea 1661" y1="8.556" x2="0.28" transform="translate(472.248 2930.424)" fill="none" stroke="#3b5b7a" stroke-linecap="round" stroke-linejoin="round" stroke-width="1"/>
    <line id="Línea_1662" data-name="Línea 1662" x1="1.004" y1="8.03" transform="translate(492.609 2930.893)" fill="none" stroke="#3b5b7a" stroke-linecap="round" stroke-linejoin="round" stroke-width="1"/>
  </g>
</svg>
